<svg xmlns="http://www.w3.org/2000/svg" xmlns:xlink="http://www.w3.org/1999/xlink" width="500" zoomAndPan="magnify" viewBox="0 0 375 374.999991" height="500" preserveAspectRatio="xMidYMid meet" version="1.2"><defs><clipPath id="08a409e197"><path d="M 50 85 L 325 85 L 325 291.867188 L 50 291.867188 Z M 50 85 "/></clipPath></defs><g id="58a8a53923"><rect x="0" width="375" y="0" height="374.999991" style="fill:#ffffff;fill-opacity:1;stroke:none;"/><rect x="0" width="375" y="0" height="374.999991" style="fill:#ffffff;fill-opacity:1;stroke:none;"/><g clip-rule="nonzero" clip-path="url(#08a409e197)"><path style=" stroke:none;fill-rule:evenodd;fill:#000000;fill-opacity:1;" d="M 318.171875 91.503906 C 310.039062 83.375 296.835938 83.375 288.703125 91.503906 C 288.703125 91.503906 161.972656 218.253906 140.078125 240.152344 C 139.230469 241.003906 138.078125 241.484375 136.875 241.484375 C 135.675781 241.484375 134.523438 241.003906 133.671875 240.152344 C 122.578125 229.054688 86.449219 192.925781 86.449219 192.925781 C 78.316406 184.789062 65.113281 184.789062 56.980469 192.925781 C 48.847656 201.054688 48.847656 214.265625 56.980469 222.394531 C 56.980469 222.394531 105.832031 271.261719 118.9375 284.363281 C 123.695312 289.121094 130.148438 291.792969 136.875 291.792969 C 143.605469 291.792969 150.058594 289.121094 154.8125 284.363281 C 177.917969 261.257812 318.171875 120.980469 318.171875 120.980469 C 326.304688 112.84375 326.304688 99.640625 318.171875 91.503906 Z M 318.171875 91.503906 "/></g></g></svg>