<svg xmlns="http://www.w3.org/2000/svg" xmlns:xlink="http://www.w3.org/1999/xlink" width="500" zoomAndPan="magnify" viewBox="0 0 375 374.999991" height="500" preserveAspectRatio="xMidYMid meet" version="1.2"><defs><clipPath id="3a91bb04b8"><path d="M 48.890625 48.890625 L 326.390625 48.890625 L 326.390625 326.390625 L 48.890625 326.390625 Z M 48.890625 48.890625 "/></clipPath></defs><g id="6b6f41a7cb"><rect x="0" width="375" y="0" height="374.999991" style="fill:#ffffff;fill-opacity:1;stroke:none;"/><rect x="0" width="375" y="0" height="374.999991" style="fill:#ffffff;fill-opacity:1;stroke:none;"/><g clip-rule="nonzero" clip-path="url(#3a91bb04b8)"><path style=" stroke:none;fill-rule:nonzero;fill:#000000;fill-opacity:1;" d="M 311.046875 172.296875 L 202.980469 172.296875 L 202.980469 64.230469 C 202.980469 55.742188 196.128906 48.890625 187.640625 48.890625 C 179.148438 48.890625 172.296875 55.742188 172.296875 64.230469 L 172.296875 172.296875 L 64.230469 172.296875 C 55.742188 172.296875 48.890625 179.148438 48.890625 187.640625 C 48.890625 196.128906 55.742188 202.980469 64.230469 202.980469 L 172.296875 202.980469 L 172.296875 311.046875 C 172.296875 319.539062 179.148438 326.390625 187.640625 326.390625 C 196.128906 326.390625 202.980469 319.539062 202.980469 311.046875 L 202.980469 202.980469 L 311.046875 202.980469 C 319.535156 202.980469 326.390625 196.128906 326.390625 187.640625 C 326.390625 179.148438 319.535156 172.296875 311.046875 172.296875 Z M 311.046875 172.296875 "/></g></g></svg>