<svg xmlns="http://www.w3.org/2000/svg" xmlns:xlink="http://www.w3.org/1999/xlink" width="500" zoomAndPan="magnify" viewBox="0 0 375 374.999991" height="500" preserveAspectRatio="xMidYMid meet" version="1.2"><defs><clipPath id="8cfc9a1553"><path d="M 50.296875 50.296875 L 324.796875 50.296875 L 324.796875 324.796875 L 50.296875 324.796875 Z M 50.296875 50.296875 "/></clipPath></defs><g id="9e59d203cd"><rect x="0" width="375" y="0" height="374.999991" style="fill:#ffffff;fill-opacity:1;stroke:none;"/><rect x="0" width="375" y="0" height="374.999991" style="fill:#ffffff;fill-opacity:1;stroke:none;"/><g clip-rule="nonzero" clip-path="url(#8cfc9a1553)"><path style=" stroke:none;fill-rule:nonzero;fill:#070404;fill-opacity:1;" d="M 324.703125 187.5 C 324.703125 189.746094 324.648438 191.988281 324.539062 194.230469 C 324.425781 196.472656 324.261719 198.714844 324.042969 200.949219 C 323.820312 203.183594 323.546875 205.410156 323.21875 207.632812 C 322.886719 209.851562 322.503906 212.0625 322.066406 214.265625 C 321.628906 216.46875 321.136719 218.660156 320.589844 220.835938 C 320.046875 223.015625 319.445312 225.179688 318.792969 227.328125 C 318.144531 229.476562 317.4375 231.609375 316.683594 233.722656 C 315.925781 235.835938 315.117188 237.929688 314.257812 240.003906 C 313.398438 242.078125 312.488281 244.132812 311.53125 246.160156 C 310.570312 248.191406 309.558594 250.195312 308.503906 252.175781 C 307.445312 254.15625 306.335938 256.109375 305.183594 258.035156 C 304.027344 259.960938 302.828125 261.859375 301.578125 263.726562 C 300.332031 265.59375 299.039062 267.429688 297.703125 269.230469 C 296.363281 271.035156 294.984375 272.804688 293.558594 274.539062 C 292.132812 276.277344 290.667969 277.976562 289.160156 279.640625 C 287.652344 281.304688 286.105469 282.929688 284.515625 284.515625 C 282.929688 286.105469 281.304688 287.652344 279.640625 289.160156 C 277.976562 290.667969 276.277344 292.132812 274.539062 293.558594 C 272.804688 294.984375 271.035156 296.363281 269.230469 297.703125 C 267.429688 299.039062 265.59375 300.332031 263.726562 301.578125 C 261.859375 302.828125 259.960938 304.027344 258.035156 305.183594 C 256.109375 306.335938 254.15625 307.445312 252.175781 308.503906 C 250.195312 309.558594 248.191406 310.570312 246.160156 311.53125 C 244.132812 312.488281 242.078125 313.398438 240.003906 314.257812 C 237.929688 315.117188 235.835938 315.925781 233.722656 316.683594 C 231.609375 317.4375 229.476562 318.144531 227.328125 318.792969 C 225.179688 319.445312 223.015625 320.046875 220.835938 320.589844 C 218.660156 321.136719 216.46875 321.628906 214.265625 322.066406 C 212.0625 322.503906 209.851562 322.886719 207.632812 323.21875 C 205.410156 323.546875 203.183594 323.820312 200.949219 324.042969 C 198.714844 324.261719 196.472656 324.425781 194.230469 324.539062 C 191.988281 324.648438 189.746094 324.703125 187.5 324.703125 C 185.253906 324.703125 183.011719 324.648438 180.765625 324.539062 C 178.523438 324.425781 176.285156 324.261719 174.050781 324.042969 C 171.816406 323.820312 169.589844 323.546875 167.367188 323.21875 C 165.148438 322.886719 162.933594 322.503906 160.734375 322.066406 C 158.53125 321.628906 156.339844 321.136719 154.160156 320.589844 C 151.984375 320.046875 149.820312 319.445312 147.671875 318.792969 C 145.523438 318.144531 143.390625 317.4375 141.277344 316.683594 C 139.164062 315.925781 137.070312 315.117188 134.996094 314.257812 C 132.917969 313.398438 130.867188 312.488281 128.835938 311.53125 C 126.808594 310.570312 124.804688 309.558594 122.824219 308.503906 C 120.84375 307.445312 118.890625 306.335938 116.964844 305.183594 C 115.039062 304.027344 113.140625 302.828125 111.273438 301.578125 C 109.40625 300.332031 107.570312 299.039062 105.769531 297.703125 C 103.964844 296.363281 102.195312 294.984375 100.457031 293.558594 C 98.722656 292.132812 97.023438 290.667969 95.359375 289.160156 C 93.695312 287.652344 92.070312 286.105469 90.480469 284.515625 C 88.894531 282.929688 87.347656 281.304688 85.839844 279.640625 C 84.332031 277.976562 82.863281 276.277344 81.441406 274.539062 C 80.015625 272.804688 78.632812 271.035156 77.296875 269.230469 C 75.960938 267.429688 74.667969 265.59375 73.417969 263.726562 C 72.171875 261.859375 70.972656 259.960938 69.816406 258.035156 C 68.664062 256.109375 67.554688 254.15625 66.496094 252.175781 C 65.4375 250.195312 64.429688 248.191406 63.46875 246.160156 C 62.507812 244.132812 61.601562 242.078125 60.742188 240.003906 C 59.882812 237.929688 59.074219 235.835938 58.316406 233.722656 C 57.558594 231.609375 56.855469 229.476562 56.203125 227.328125 C 55.550781 225.179688 54.953125 223.015625 54.410156 220.835938 C 53.863281 218.660156 53.371094 216.46875 52.933594 214.265625 C 52.496094 212.0625 52.109375 209.851562 51.78125 207.632812 C 51.453125 205.410156 51.175781 203.183594 50.957031 200.949219 C 50.738281 198.714844 50.570312 196.472656 50.460938 194.230469 C 50.351562 191.988281 50.296875 189.746094 50.296875 187.5 C 50.296875 185.253906 50.351562 183.011719 50.460938 180.765625 C 50.570312 178.523438 50.738281 176.285156 50.957031 174.050781 C 51.175781 171.816406 51.453125 169.589844 51.78125 167.367188 C 52.109375 165.148438 52.496094 162.933594 52.933594 160.734375 C 53.371094 158.53125 53.863281 156.339844 54.410156 154.160156 C 54.953125 151.984375 55.550781 149.820312 56.203125 147.671875 C 56.855469 145.523438 57.558594 143.390625 58.316406 141.277344 C 59.074219 139.164062 59.882812 137.070312 60.742188 134.996094 C 61.601562 132.917969 62.507812 130.867188 63.46875 128.835938 C 64.429688 126.808594 65.4375 124.804688 66.496094 122.824219 C 67.554688 120.84375 68.664062 118.890625 69.816406 116.964844 C 70.972656 115.039062 72.171875 113.140625 73.417969 111.273438 C 74.667969 109.40625 75.960938 107.570312 77.296875 105.769531 C 78.632812 103.964844 80.015625 102.195312 81.441406 100.457031 C 82.863281 98.722656 84.332031 97.023438 85.839844 95.359375 C 87.347656 93.695312 88.894531 92.070312 90.480469 90.480469 C 92.070312 88.894531 93.695312 87.347656 95.359375 85.839844 C 97.023438 84.332031 98.722656 82.863281 100.457031 81.441406 C 102.195312 80.015625 103.964844 78.632812 105.769531 77.296875 C 107.570312 75.960938 109.40625 74.667969 111.273438 73.417969 C 113.140625 72.171875 115.039062 70.972656 116.964844 69.816406 C 118.890625 68.664062 120.84375 67.554688 122.824219 66.496094 C 124.804688 65.4375 126.808594 64.429688 128.835938 63.46875 C 130.867188 62.507812 132.917969 61.601562 134.996094 60.742188 C 137.070312 59.882812 139.164062 59.074219 141.277344 58.316406 C 143.390625 57.558594 145.523438 56.855469 147.671875 56.203125 C 149.820312 55.550781 151.984375 54.953125 154.160156 54.410156 C 156.339844 53.863281 158.53125 53.371094 160.734375 52.933594 C 162.933594 52.496094 165.148438 52.109375 167.367188 51.78125 C 169.589844 51.453125 171.816406 51.175781 174.050781 50.957031 C 176.285156 50.738281 178.523438 50.570312 180.765625 50.460938 C 183.011719 50.351562 185.253906 50.296875 187.5 50.296875 C 189.746094 50.296875 191.988281 50.351562 194.230469 50.460938 C 196.472656 50.570312 198.714844 50.738281 200.949219 50.957031 C 203.183594 51.175781 205.410156 51.453125 207.632812 51.78125 C 209.851562 52.109375 212.0625 52.496094 214.265625 52.933594 C 216.46875 53.371094 218.660156 53.863281 220.835938 54.410156 C 223.015625 54.953125 225.179688 55.550781 227.328125 56.203125 C 229.476562 56.855469 231.609375 57.558594 233.722656 58.316406 C 235.835938 59.074219 237.929688 59.882812 240.003906 60.742188 C 242.078125 61.601562 244.132812 62.507812 246.160156 63.46875 C 248.191406 64.429688 250.195312 65.4375 252.175781 66.496094 C 254.15625 67.554688 256.109375 68.664062 258.035156 69.816406 C 259.960938 70.972656 261.859375 72.171875 263.726562 73.417969 C 265.59375 74.667969 267.429688 75.960938 269.230469 77.296875 C 271.035156 78.632812 272.804688 80.015625 274.539062 81.441406 C 276.277344 82.863281 277.976562 84.332031 279.640625 85.839844 C 281.304688 87.347656 282.929688 88.894531 284.515625 90.480469 C 286.105469 92.070312 287.652344 93.695312 289.160156 95.359375 C 290.667969 97.023438 292.132812 98.722656 293.558594 100.457031 C 294.984375 102.195312 296.363281 103.964844 297.703125 105.769531 C 299.039062 107.570312 300.332031 109.40625 301.578125 111.273438 C 302.828125 113.140625 304.027344 115.039062 305.183594 116.964844 C 306.335938 118.890625 307.445312 120.84375 308.503906 122.824219 C 309.558594 124.804688 310.570312 126.808594 311.53125 128.835938 C 312.488281 130.867188 313.398438 132.917969 314.257812 134.996094 C 315.117188 137.070312 315.925781 139.164062 316.683594 141.277344 C 317.4375 143.390625 318.144531 145.523438 318.792969 147.671875 C 319.445312 149.820312 320.046875 151.984375 320.589844 154.160156 C 321.136719 156.339844 321.628906 158.53125 322.066406 160.734375 C 322.503906 162.933594 322.886719 165.148438 323.21875 167.367188 C 323.546875 169.589844 323.820312 171.816406 324.042969 174.050781 C 324.261719 176.285156 324.425781 178.523438 324.539062 180.765625 C 324.648438 183.011719 324.703125 185.253906 324.703125 187.5 Z M 324.703125 187.5 "/></g><path style=" stroke:none;fill-rule:nonzero;fill:#ffffff;fill-opacity:1;" d="M 211.933594 273.15625 C 208.945312 273.15625 205.960938 272.015625 203.683594 269.742188 L 121.449219 187.5 L 203.683594 105.265625 C 208.238281 100.710938 215.625 100.707031 220.1875 105.265625 C 224.742188 109.820312 224.742188 117.214844 220.1875 121.765625 L 154.449219 187.5 L 220.1875 253.238281 C 224.742188 257.792969 224.742188 265.179688 220.1875 269.742188 C 217.910156 272.015625 214.921875 273.15625 211.933594 273.15625 Z M 211.933594 273.15625 "/></g></svg>