<svg xmlns="http://www.w3.org/2000/svg" xmlns:xlink="http://www.w3.org/1999/xlink" width="500" zoomAndPan="magnify" viewBox="0 0 375 374.999991" height="500" preserveAspectRatio="xMidYMid meet" version="1.2"><defs><clipPath id="d165c3fbcb"><path d="M 48.890625 48.890625 L 326 48.890625 L 326 325.640625 L 48.890625 325.640625 Z M 48.890625 48.890625 "/></clipPath></defs><g id="e405aa521d"><rect x="0" width="375" y="0" height="374.999991" style="fill:#ffffff;fill-opacity:1;stroke:none;"/><rect x="0" width="375" y="0" height="374.999991" style="fill:#ffffff;fill-opacity:1;stroke:none;"/><g clip-rule="nonzero" clip-path="url(#d165c3fbcb)"><path style=" stroke:none;fill-rule:nonzero;fill:#000000;fill-opacity:1;" d="M 149.582031 235.296875 C 126.683594 235.292969 105.152344 226.378906 88.960938 210.191406 C 55.53125 176.769531 55.53125 122.390625 88.960938 88.972656 C 105.675781 72.257812 127.625 63.90625 149.582031 63.90625 C 171.535156 63.90625 193.492188 72.261719 210.203125 88.96875 C 243.628906 122.390625 243.628906 176.769531 210.203125 210.191406 C 194.011719 226.378906 172.480469 235.296875 149.582031 235.296875 Z M 323.46875 312.855469 L 225.878906 215.285156 C 233.058594 206.980469 238.769531 197.648438 242.898438 187.457031 C 247.792969 175.398438 250.273438 162.652344 250.273438 149.582031 C 250.273438 136.507812 247.792969 123.765625 242.898438 111.703125 C 237.835938 99.207031 230.390625 88.003906 220.78125 78.394531 C 211.171875 68.785156 199.964844 61.347656 187.46875 56.28125 C 175.402344 51.386719 162.65625 48.90625 149.582031 48.90625 C 136.507812 48.90625 123.761719 51.390625 111.695312 56.28125 C 99.199219 61.347656 87.992188 68.785156 78.382812 78.394531 C 68.773438 88.003906 61.328125 99.207031 56.261719 111.703125 C 51.367188 123.765625 48.886719 136.507812 48.886719 149.582031 C 48.886719 162.652344 51.371094 175.398438 56.261719 187.457031 C 61.328125 199.953125 68.773438 211.160156 78.382812 220.765625 C 87.992188 230.375 99.199219 237.816406 111.695312 242.878906 C 123.761719 247.773438 136.507812 250.25 149.582031 250.253906 C 162.65625 250.253906 175.402344 247.773438 187.46875 242.878906 C 197.660156 238.75 206.992188 233.039062 215.300781 225.863281 L 312.890625 323.429688 C 314.351562 324.890625 316.265625 325.621094 318.179688 325.621094 C 320.09375 325.621094 322.007812 324.890625 323.46875 323.429688 C 326.390625 320.507812 326.390625 315.773438 323.46875 312.855469 "/></g></g></svg>