<svg xmlns="http://www.w3.org/2000/svg" xmlns:xlink="http://www.w3.org/1999/xlink" width="500" zoomAndPan="magnify" viewBox="0 0 375 374.999991" height="500" preserveAspectRatio="xMidYMid meet" version="1.2"><defs><clipPath id="fea8b6eefd"><path d="M 48.898438 78.835938 L 326.382812 78.835938 L 326.382812 316.894531 L 48.898438 316.894531 Z M 48.898438 78.835938 "/></clipPath><clipPath id="2732db8546"><path d="M 251 58.144531 L 269 58.144531 L 269 110 L 251 110 Z M 251 58.144531 "/></clipPath></defs><g id="fffdc3fd01"><rect x="0" width="375" y="0" height="374.999991" style="fill:#ffffff;fill-opacity:1;stroke:none;"/><rect x="0" width="375" y="0" height="374.999991" style="fill:#ffffff;fill-opacity:1;stroke:none;"/><path style=" stroke:none;fill-rule:nonzero;fill:#231815;fill-opacity:1;" d="M 130.140625 88.324219 L 243.46875 88.324219 C 244.515625 88.324219 245.367188 87.480469 245.367188 86.433594 L 245.367188 80.753906 C 245.367188 79.707031 244.515625 78.859375 243.46875 78.859375 L 130.140625 78.859375 C 129.09375 78.859375 128.246094 79.707031 128.246094 80.753906 L 128.246094 86.433594 C 128.246094 87.480469 129.09375 88.324219 130.140625 88.324219 "/><g clip-rule="nonzero" clip-path="url(#fea8b6eefd)"><path style=" stroke:none;fill-rule:nonzero;fill:#231815;fill-opacity:1;" d="M 296.875 307.429688 L 78.40625 307.429688 C 67.34375 307.429688 58.375 298.46875 58.375 287.414062 L 58.375 154.183594 L 316.90625 154.183594 L 316.90625 287.414062 C 316.90625 298.46875 307.9375 307.429688 296.875 307.429688 Z M 296.875 78.855469 L 275.6875 78.855469 C 274.640625 78.855469 273.792969 79.707031 273.792969 80.75 L 273.792969 86.429688 C 273.792969 87.476562 274.640625 88.324219 275.6875 88.324219 L 296.875 88.324219 C 307.925781 88.324219 316.90625 97.300781 316.90625 108.359375 L 316.90625 144.714844 L 58.375 144.714844 L 58.375 108.359375 C 58.375 97.300781 67.355469 88.324219 78.40625 88.324219 L 97.925781 88.324219 C 98.972656 88.324219 99.820312 87.476562 99.820312 86.429688 L 99.820312 80.75 C 99.820312 79.707031 98.972656 78.855469 97.925781 78.855469 L 78.40625 78.855469 C 62.144531 78.855469 48.898438 92.09375 48.898438 108.359375 L 48.898438 287.414062 C 48.898438 303.628906 62.175781 316.898438 78.40625 316.898438 L 296.875 316.898438 C 313.105469 316.898438 326.382812 303.628906 326.382812 287.414062 L 326.382812 108.359375 C 326.382812 92.09375 313.136719 78.855469 296.875 78.855469 "/></g><path style=" stroke:none;fill-rule:nonzero;fill:#231815;fill-opacity:1;" d="M 114.035156 111.371094 C 118.734375 111.371094 122.5625 107.566406 122.5625 102.851562 L 122.5625 69.011719 C 122.5625 64.296875 118.734375 60.492188 114.035156 60.492188 C 109.3125 60.492188 105.503906 64.296875 105.503906 69.011719 L 105.503906 102.851562 C 105.503906 107.566406 109.3125 111.371094 114.035156 111.371094 "/><g clip-rule="nonzero" clip-path="url(#2732db8546)"><path style=" stroke:none;fill-rule:nonzero;fill:#231815;fill-opacity:1;" d="M 259.578125 109.039062 C 264.28125 109.039062 268.105469 105.214844 268.105469 100.519531 L 268.105469 66.664062 C 268.105469 61.96875 264.28125 58.144531 259.578125 58.144531 C 254.859375 58.144531 251.050781 61.96875 251.050781 66.664062 L 251.050781 100.519531 C 251.050781 105.214844 254.859375 109.039062 259.578125 109.039062 "/></g></g></svg>