<svg xmlns="http://www.w3.org/2000/svg" xmlns:xlink="http://www.w3.org/1999/xlink" width="500" zoomAndPan="magnify" viewBox="0 0 375 374.999991" height="500" preserveAspectRatio="xMidYMid meet" version="1.2"><defs><clipPath id="592d3c8545"><path d="M 48.890625 48.890625 L 326.109375 48.890625 L 326.109375 326.109375 L 48.890625 326.109375 Z M 48.890625 48.890625 "/></clipPath><clipPath id="f3f02e90a0"><path d="M 187.5 48.890625 C 110.945312 48.890625 48.890625 110.945312 48.890625 187.5 C 48.890625 264.054688 110.945312 326.109375 187.5 326.109375 C 264.054688 326.109375 326.109375 264.054688 326.109375 187.5 C 326.109375 110.945312 264.054688 48.890625 187.5 48.890625 Z M 187.5 48.890625 "/></clipPath><clipPath id="3cd2cabeb9"><path d="M 135 135.082031 L 240 135.082031 L 240 240 L 135 240 Z M 135 135.082031 "/></clipPath></defs><g id="68feec5678"><rect x="0" width="375" y="0" height="374.999991" style="fill:#ffffff;fill-opacity:1;stroke:none;"/><rect x="0" width="375" y="0" height="374.999991" style="fill:#ffffff;fill-opacity:1;stroke:none;"/><g clip-rule="nonzero" clip-path="url(#592d3c8545)"><g clip-rule="nonzero" clip-path="url(#f3f02e90a0)"><path style=" stroke:none;fill-rule:nonzero;fill:#000000;fill-opacity:1;" d="M 48.890625 48.890625 L 326.109375 48.890625 L 326.109375 326.109375 L 48.890625 326.109375 Z M 48.890625 48.890625 "/></g></g><g clip-rule="nonzero" clip-path="url(#3cd2cabeb9)"><path style=" stroke:none;fill-rule:nonzero;fill:#ffffff;fill-opacity:1;" d="M 226.703125 135.203125 C 223.496094 135.203125 220.289062 136.445312 217.910156 138.824219 L 187.496094 169.136719 L 157.183594 138.824219 C 154.699219 136.445312 151.597656 135.203125 148.390625 135.203125 C 145.183594 135.203125 141.976562 136.445312 139.597656 138.824219 L 138.871094 139.546875 C 134.011719 144.410156 134.011719 152.273438 138.871094 157.136719 L 169.183594 187.445312 L 138.871094 217.863281 C 134.011719 222.722656 134.011719 230.585938 138.871094 235.449219 L 139.597656 236.171875 C 141.976562 238.550781 145.183594 239.792969 148.390625 239.792969 C 151.597656 239.792969 154.804688 238.550781 157.183594 236.171875 L 187.496094 205.859375 L 217.804688 236.171875 C 220.1875 238.550781 223.394531 239.792969 226.601562 239.792969 C 229.808594 239.792969 233.015625 238.550781 235.394531 236.171875 L 236.117188 235.449219 C 240.980469 230.585938 240.980469 222.722656 236.117188 217.863281 L 205.804688 187.445312 L 236.117188 157.136719 C 240.980469 152.273438 240.980469 144.410156 236.117188 139.546875 L 235.394531 138.824219 C 233.015625 136.445312 229.808594 135.203125 226.703125 135.203125 Z M 226.703125 135.203125 "/></g></g></svg>