<svg xmlns="http://www.w3.org/2000/svg" xmlns:xlink="http://www.w3.org/1999/xlink" width="500" zoomAndPan="magnify" viewBox="0 0 375 374.999991" height="500" preserveAspectRatio="xMidYMid meet" version="1.2"><defs><clipPath id="1af85e928e"><path d="M 48.890625 48.890625 L 326.390625 48.890625 L 326.390625 326.390625 L 48.890625 326.390625 Z M 48.890625 48.890625 "/></clipPath></defs><g id="213de401ea"><rect x="0" width="375" y="0" height="374.999991" style="fill:#ffffff;fill-opacity:1;stroke:none;"/><rect x="0" width="375" y="0" height="374.999991" style="fill:#ffffff;fill-opacity:1;stroke:none;"/><g clip-rule="nonzero" clip-path="url(#1af85e928e)"><path style=" stroke:none;fill-rule:nonzero;fill:#000000;fill-opacity:1;" d="M 299.269531 150.640625 L 298.082031 150.640625 C 297.214844 150.632812 296.367188 150.496094 295.542969 150.234375 C 294.714844 149.96875 293.945312 149.589844 293.230469 149.097656 C 292.519531 148.601562 291.894531 148.011719 291.359375 147.328125 C 290.824219 146.644531 290.402344 145.898438 290.09375 145.089844 C 289.765625 144.304688 289.558594 143.492188 289.476562 142.648438 C 289.390625 141.804688 289.429688 140.96875 289.59375 140.136719 C 289.757812 139.304688 290.042969 138.515625 290.441406 137.765625 C 290.839844 137.019531 291.339844 136.34375 291.941406 135.746094 L 292.785156 134.90625 C 293.410156 134.277344 294.003906 133.617188 294.566406 132.929688 C 295.128906 132.242188 295.65625 131.53125 296.148438 130.789062 C 296.640625 130.050781 297.09375 129.289062 297.511719 128.507812 C 297.929688 127.722656 298.308594 126.921875 298.648438 126.101562 C 298.988281 125.28125 299.285156 124.445312 299.542969 123.59375 C 299.800781 122.746094 300.015625 121.882812 300.1875 121.015625 C 300.359375 120.144531 300.488281 119.265625 300.578125 118.382812 C 300.664062 117.5 300.707031 116.613281 300.707031 115.726562 C 300.707031 114.835938 300.664062 113.949219 300.578125 113.066406 C 300.488281 112.183594 300.359375 111.304688 300.1875 110.4375 C 300.015625 109.566406 299.800781 108.703125 299.542969 107.855469 C 299.285156 107.003906 298.988281 106.167969 298.648438 105.347656 C 298.308594 104.527344 297.929688 103.726562 297.511719 102.941406 C 297.09375 102.160156 296.640625 101.398438 296.148438 100.660156 C 295.65625 99.917969 295.128906 99.207031 294.566406 98.519531 C 294.003906 97.832031 293.410156 97.175781 292.785156 96.542969 L 278.808594 82.578125 C 278.179688 81.949219 277.519531 81.355469 276.832031 80.792969 C 276.148438 80.230469 275.433594 79.703125 274.695312 79.210938 C 273.957031 78.71875 273.195312 78.261719 272.414062 77.84375 C 271.628906 77.425781 270.828125 77.046875 270.007812 76.707031 C 269.1875 76.367188 268.351562 76.070312 267.5 75.8125 C 266.652344 75.554688 265.792969 75.339844 264.921875 75.167969 C 264.050781 74.996094 263.171875 74.863281 262.289062 74.777344 C 261.40625 74.691406 260.519531 74.648438 259.632812 74.648438 C 258.742188 74.648438 257.859375 74.691406 256.972656 74.777344 C 256.089844 74.863281 255.214844 74.996094 254.34375 75.167969 C 253.472656 75.339844 252.613281 75.554688 251.761719 75.8125 C 250.910156 76.070312 250.078125 76.367188 249.257812 76.707031 C 248.4375 77.046875 247.632812 77.425781 246.851562 77.84375 C 246.066406 78.261719 245.304688 78.71875 244.566406 79.210938 C 243.828125 79.703125 243.117188 80.230469 242.429688 80.792969 C 241.742188 81.355469 241.085938 81.949219 240.457031 82.578125 L 239.613281 83.417969 C 238.996094 84.015625 238.300781 84.511719 237.535156 84.90625 C 236.773438 85.300781 235.964844 85.578125 235.121094 85.738281 C 234.273438 85.898438 233.421875 85.933594 232.566406 85.84375 C 231.710938 85.757812 230.886719 85.546875 230.089844 85.21875 C 229.296875 84.886719 228.5625 84.449219 227.898438 83.90625 C 227.230469 83.363281 226.652344 82.734375 226.167969 82.023438 C 225.683594 81.3125 225.3125 80.546875 225.050781 79.726562 C 224.792969 78.90625 224.652344 78.0625 224.640625 77.203125 L 224.640625 76.011719 C 224.636719 75.121094 224.59375 74.234375 224.503906 73.351562 C 224.417969 72.46875 224.285156 71.589844 224.113281 70.722656 C 223.9375 69.851562 223.722656 68.988281 223.464844 68.140625 C 223.207031 67.289062 222.90625 66.457031 222.566406 65.636719 C 222.226562 64.816406 221.847656 64.011719 221.429688 63.230469 C 221.007812 62.449219 220.554688 61.6875 220.058594 60.949219 C 219.566406 60.210938 219.039062 59.5 218.472656 58.8125 C 217.910156 58.125 217.316406 57.46875 216.6875 56.839844 C 216.058594 56.210938 215.402344 55.617188 214.714844 55.054688 C 214.03125 54.488281 213.316406 53.960938 212.578125 53.46875 C 211.839844 52.972656 211.082031 52.519531 210.296875 52.097656 C 209.515625 51.679688 208.710938 51.300781 207.890625 50.960938 C 207.070312 50.621094 206.238281 50.320312 205.386719 50.0625 C 204.539062 49.804688 203.679688 49.589844 202.808594 49.414062 C 201.9375 49.242188 201.058594 49.109375 200.175781 49.023438 C 199.292969 48.933594 198.40625 48.890625 197.519531 48.890625 L 177.761719 48.890625 C 176.871094 48.890625 175.984375 48.933594 175.101562 49.023438 C 174.21875 49.109375 173.339844 49.242188 172.472656 49.414062 C 171.601562 49.589844 170.738281 49.804688 169.890625 50.0625 C 169.039062 50.320312 168.207031 50.621094 167.386719 50.960938 C 166.566406 51.300781 165.761719 51.679688 164.980469 52.097656 C 164.199219 52.519531 163.4375 52.972656 162.699219 53.46875 C 161.960938 53.960938 161.25 54.488281 160.5625 55.054688 C 159.875 55.617188 159.21875 56.210938 158.589844 56.839844 C 157.960938 57.46875 157.367188 58.125 156.804688 58.8125 C 156.238281 59.5 155.710938 60.210938 155.21875 60.949219 C 154.722656 61.6875 154.269531 62.449219 153.847656 63.230469 C 153.429688 64.011719 153.050781 64.816406 152.710938 65.636719 C 152.371094 66.457031 152.070312 67.289062 151.8125 68.140625 C 151.554688 68.988281 151.339844 69.851562 151.164062 70.722656 C 150.992188 71.589844 150.859375 72.46875 150.773438 73.351562 C 150.683594 74.234375 150.640625 75.121094 150.640625 76.011719 L 150.640625 77.203125 C 150.617188 78.058594 150.472656 78.890625 150.207031 79.703125 C 149.945312 80.515625 149.570312 81.277344 149.085938 81.980469 C 148.601562 82.683594 148.027344 83.304688 147.363281 83.84375 C 146.699219 84.382812 145.96875 84.8125 145.179688 85.140625 C 144.390625 85.46875 143.570312 85.675781 142.71875 85.765625 C 141.871094 85.855469 141.023438 85.820312 140.183594 85.664062 C 139.34375 85.507812 138.542969 85.234375 137.78125 84.847656 C 137.019531 84.460938 136.328125 83.972656 135.710938 83.382812 L 134.914062 82.539062 C 134.285156 81.914062 133.628906 81.320312 132.941406 80.753906 C 132.253906 80.191406 131.542969 79.664062 130.800781 79.171875 C 130.0625 78.679688 129.304688 78.226562 128.519531 77.808594 C 127.734375 77.390625 126.933594 77.011719 126.113281 76.671875 C 125.292969 76.332031 124.457031 76.035156 123.609375 75.777344 C 122.757812 75.519531 121.898438 75.304688 121.027344 75.128906 C 120.15625 74.957031 119.28125 74.828125 118.394531 74.742188 C 117.511719 74.652344 116.625 74.609375 115.738281 74.609375 C 114.851562 74.609375 113.964844 74.652344 113.082031 74.742188 C 112.199219 74.828125 111.320312 74.957031 110.449219 75.128906 C 109.578125 75.304688 108.71875 75.519531 107.867188 75.777344 C 107.019531 76.035156 106.183594 76.332031 105.363281 76.671875 C 104.542969 77.011719 103.742188 77.390625 102.957031 77.808594 C 102.175781 78.226562 101.414062 78.679688 100.675781 79.171875 C 99.9375 79.664062 99.222656 80.191406 98.535156 80.753906 C 97.851562 81.320312 97.191406 81.914062 96.5625 82.539062 L 82.539062 96.507812 C 81.914062 97.136719 81.320312 97.796875 80.757812 98.480469 C 80.195312 99.167969 79.667969 99.882812 79.175781 100.621094 C 78.683594 101.359375 78.230469 102.121094 77.8125 102.90625 C 77.394531 103.6875 77.015625 104.492188 76.675781 105.3125 C 76.335938 106.132812 76.039062 106.96875 75.78125 107.816406 C 75.523438 108.667969 75.308594 109.527344 75.136719 110.398438 C 74.964844 111.269531 74.835938 112.148438 74.746094 113.03125 C 74.660156 113.914062 74.617188 114.800781 74.617188 115.6875 C 74.617188 116.574219 74.660156 117.460938 74.746094 118.34375 C 74.835938 119.230469 74.964844 120.105469 75.136719 120.976562 C 75.308594 121.847656 75.523438 122.707031 75.78125 123.558594 C 76.039062 124.40625 76.335938 125.242188 76.675781 126.0625 C 77.015625 126.882812 77.394531 127.6875 77.8125 128.46875 C 78.230469 129.253906 78.683594 130.015625 79.175781 130.753906 C 79.667969 131.492188 80.195312 132.207031 80.757812 132.894531 C 81.320312 133.582031 81.914062 134.238281 82.539062 134.867188 L 83.382812 135.710938 C 83.988281 136.328125 84.488281 137.023438 84.886719 137.796875 C 85.285156 138.566406 85.558594 139.378906 85.710938 140.234375 C 85.863281 141.085938 85.886719 141.945312 85.78125 142.804688 C 85.675781 143.664062 85.445312 144.492188 85.09375 145.28125 C 84.777344 146.070312 84.351562 146.796875 83.816406 147.457031 C 83.28125 148.121094 82.664062 148.6875 81.960938 149.167969 C 81.257812 149.644531 80.5 150.007812 79.6875 150.257812 C 78.875 150.507812 78.042969 150.636719 77.195312 150.640625 L 76.011719 150.640625 C 75.121094 150.640625 74.234375 150.683594 73.351562 150.773438 C 72.46875 150.859375 71.589844 150.992188 70.722656 151.164062 C 69.851562 151.339844 68.988281 151.554688 68.140625 151.8125 C 67.289062 152.070312 66.457031 152.371094 65.636719 152.710938 C 64.816406 153.050781 64.011719 153.429688 63.230469 153.847656 C 62.449219 154.269531 61.6875 154.722656 60.949219 155.21875 C 60.210938 155.710938 59.5 156.238281 58.8125 156.804688 C 58.125 157.367188 57.46875 157.960938 56.839844 158.589844 C 56.210938 159.21875 55.617188 159.875 55.054688 160.5625 C 54.488281 161.25 53.960938 161.960938 53.46875 162.699219 C 52.972656 163.4375 52.519531 164.199219 52.097656 164.980469 C 51.679688 165.761719 51.300781 166.566406 50.960938 167.386719 C 50.621094 168.207031 50.320312 169.039062 50.0625 169.890625 C 49.804688 170.738281 49.589844 171.601562 49.414062 172.472656 C 49.242188 173.339844 49.109375 174.21875 49.023438 175.101562 C 48.933594 175.984375 48.890625 176.871094 48.890625 177.761719 L 48.890625 197.519531 C 48.890625 198.40625 48.933594 199.292969 49.023438 200.175781 C 49.109375 201.058594 49.242188 201.9375 49.414062 202.808594 C 49.589844 203.679688 49.804688 204.539062 50.0625 205.386719 C 50.320312 206.238281 50.621094 207.070312 50.960938 207.890625 C 51.300781 208.710938 51.679688 209.515625 52.097656 210.296875 C 52.519531 211.078125 52.972656 211.839844 53.46875 212.578125 C 53.960938 213.316406 54.488281 214.03125 55.054688 214.714844 C 55.617188 215.402344 56.210938 216.058594 56.839844 216.6875 C 57.46875 217.316406 58.125 217.910156 58.8125 218.472656 C 59.5 219.039062 60.210938 219.566406 60.949219 220.058594 C 61.6875 220.554688 62.449219 221.007812 63.230469 221.429688 C 64.011719 221.847656 64.816406 222.226562 65.636719 222.566406 C 66.457031 222.90625 67.289062 223.207031 68.140625 223.464844 C 68.988281 223.722656 69.851562 223.9375 70.722656 224.113281 C 71.589844 224.285156 72.46875 224.417969 73.351562 224.503906 C 74.234375 224.59375 75.121094 224.636719 76.011719 224.640625 L 77.195312 224.640625 C 78.0625 224.648438 78.910156 224.78125 79.734375 225.042969 C 80.5625 225.308594 81.332031 225.6875 82.046875 226.183594 C 82.757812 226.675781 83.382812 227.265625 83.917969 227.949219 C 84.453125 228.632812 84.875 229.378906 85.1875 230.1875 C 85.511719 230.972656 85.71875 231.785156 85.804688 232.628906 C 85.886719 233.472656 85.847656 234.308594 85.683594 235.140625 C 85.519531 235.972656 85.234375 236.761719 84.835938 237.511719 C 84.4375 238.257812 83.9375 238.933594 83.335938 239.53125 L 82.492188 240.375 C 81.867188 241.003906 81.273438 241.660156 80.710938 242.347656 C 80.148438 243.035156 79.621094 243.746094 79.128906 244.488281 C 78.636719 245.226562 78.183594 245.988281 77.765625 246.769531 C 77.347656 247.554688 76.96875 248.355469 76.628906 249.175781 C 76.289062 249.996094 75.992188 250.832031 75.734375 251.683594 C 75.476562 252.53125 75.261719 253.394531 75.089844 254.265625 C 74.917969 255.132812 74.789062 256.011719 74.703125 256.894531 C 74.613281 257.777344 74.570312 258.664062 74.570312 259.554688 C 74.570312 260.441406 74.613281 261.328125 74.703125 262.210938 C 74.789062 263.09375 74.917969 263.972656 75.089844 264.84375 C 75.261719 265.714844 75.476562 266.574219 75.734375 267.421875 C 75.992188 268.273438 76.289062 269.109375 76.628906 269.929688 C 76.96875 270.75 77.347656 271.550781 77.765625 272.335938 C 78.183594 273.117188 78.636719 273.878906 79.128906 274.617188 C 79.621094 275.359375 80.148438 276.070312 80.710938 276.757812 C 81.273438 277.445312 81.867188 278.105469 82.492188 278.734375 L 96.460938 292.691406 C 97.089844 293.320312 97.746094 293.914062 98.433594 294.476562 C 99.121094 295.039062 99.835938 295.570312 100.574219 296.0625 C 101.3125 296.554688 102.074219 297.011719 102.855469 297.429688 C 103.640625 297.847656 104.441406 298.226562 105.261719 298.566406 C 106.082031 298.90625 106.917969 299.203125 107.769531 299.460938 C 108.617188 299.71875 109.480469 299.933594 110.351562 300.109375 C 111.222656 300.28125 112.097656 300.410156 112.984375 300.5 C 113.867188 300.585938 114.753906 300.628906 115.640625 300.628906 C 116.53125 300.628906 117.414062 300.585938 118.300781 300.5 C 119.183594 300.410156 120.0625 300.28125 120.933594 300.109375 C 121.804688 299.933594 122.664062 299.71875 123.515625 299.460938 C 124.363281 299.203125 125.199219 298.90625 126.019531 298.566406 C 126.839844 298.226562 127.644531 297.847656 128.425781 297.429688 C 129.210938 297.011719 129.972656 296.554688 130.710938 296.0625 C 131.449219 295.570312 132.160156 295.039062 132.847656 294.476562 C 133.535156 293.914062 134.191406 293.320312 134.820312 292.691406 L 135.664062 291.847656 C 136.285156 291.242188 136.980469 290.742188 137.75 290.347656 C 138.519531 289.949219 139.332031 289.675781 140.1875 289.523438 C 141.039062 289.371094 141.898438 289.347656 142.757812 289.449219 C 143.617188 289.554688 144.445312 289.785156 145.238281 290.136719 C 146.027344 290.453125 146.75 290.878906 147.414062 291.410156 C 148.074219 291.945312 148.644531 292.5625 149.121094 293.265625 C 149.597656 293.96875 149.960938 294.726562 150.210938 295.535156 C 150.464844 296.347656 150.589844 297.179688 150.59375 298.027344 L 150.59375 299.222656 C 150.59375 300.113281 150.636719 301 150.722656 301.886719 C 150.808594 302.769531 150.9375 303.648438 151.113281 304.523438 C 151.285156 305.394531 151.5 306.257812 151.757812 307.109375 C 152.015625 307.960938 152.316406 308.796875 152.65625 309.621094 C 152.996094 310.441406 153.375 311.246094 153.796875 312.03125 C 154.214844 312.816406 154.671875 313.578125 155.164062 314.320312 C 155.660156 315.058594 156.1875 315.773438 156.753906 316.460938 C 157.316406 317.148438 157.914062 317.808594 158.542969 318.4375 C 159.171875 319.066406 159.832031 319.664062 160.519531 320.226562 C 161.207031 320.792969 161.921875 321.320312 162.664062 321.816406 C 163.402344 322.308594 164.164062 322.765625 164.949219 323.1875 C 165.734375 323.605469 166.539062 323.984375 167.359375 324.324219 C 168.183594 324.667969 169.019531 324.964844 169.871094 325.222656 C 170.722656 325.480469 171.585938 325.695312 172.457031 325.871094 C 173.332031 326.042969 174.210938 326.171875 175.097656 326.257812 C 175.980469 326.347656 176.871094 326.390625 177.761719 326.390625 L 197.519531 326.390625 C 198.40625 326.386719 199.292969 326.34375 200.175781 326.253906 C 201.058594 326.167969 201.9375 326.035156 202.808594 325.863281 C 203.679688 325.6875 204.539062 325.472656 205.386719 325.214844 C 206.238281 324.957031 207.070312 324.65625 207.890625 324.316406 C 208.710938 323.976562 209.515625 323.597656 210.296875 323.179688 C 211.082031 322.757812 211.839844 322.304688 212.578125 321.808594 C 213.316406 321.316406 214.03125 320.789062 214.714844 320.222656 C 215.402344 319.660156 216.058594 319.066406 216.6875 318.4375 C 217.316406 317.808594 217.910156 317.152344 218.472656 316.464844 C 219.039062 315.78125 219.566406 315.066406 220.058594 314.328125 C 220.554688 313.589844 221.007812 312.828125 221.429688 312.046875 C 221.847656 311.265625 222.226562 310.460938 222.566406 309.640625 C 222.90625 308.820312 223.207031 307.988281 223.464844 307.136719 C 223.722656 306.289062 223.9375 305.425781 224.113281 304.558594 C 224.285156 303.6875 224.417969 302.808594 224.503906 301.925781 C 224.59375 301.042969 224.636719 300.15625 224.640625 299.269531 L 224.640625 298.074219 C 224.660156 297.21875 224.804688 296.386719 225.070312 295.574219 C 225.332031 294.761719 225.707031 294 226.191406 293.296875 C 226.675781 292.59375 227.25 291.972656 227.914062 291.433594 C 228.578125 290.894531 229.308594 290.464844 230.097656 290.136719 C 230.886719 289.808594 231.707031 289.601562 232.558594 289.511719 C 233.40625 289.425781 234.253906 289.457031 235.09375 289.613281 C 235.933594 289.769531 236.734375 290.042969 237.496094 290.429688 C 238.257812 290.820312 238.949219 291.308594 239.570312 291.894531 L 240.410156 292.738281 C 241.039062 293.363281 241.695312 293.960938 242.382812 294.523438 C 243.070312 295.085938 243.78125 295.613281 244.523438 296.105469 C 245.261719 296.597656 246.019531 297.050781 246.804688 297.46875 C 247.585938 297.886719 248.390625 298.265625 249.210938 298.605469 C 250.03125 298.945312 250.867188 299.246094 251.714844 299.5 C 252.566406 299.757812 253.425781 299.972656 254.296875 300.148438 C 255.167969 300.320312 256.042969 300.449219 256.929688 300.535156 C 257.8125 300.625 258.699219 300.667969 259.585938 300.667969 C 260.472656 300.667969 261.359375 300.625 262.242188 300.535156 C 263.125 300.449219 264.003906 300.320312 264.875 300.148438 C 265.746094 299.972656 266.605469 299.757812 267.457031 299.5 C 268.304688 299.246094 269.140625 298.945312 269.960938 298.605469 C 270.78125 298.265625 271.582031 297.886719 272.367188 297.46875 C 273.148438 297.050781 273.910156 296.597656 274.648438 296.105469 C 275.386719 295.613281 276.101562 295.085938 276.789062 294.523438 C 277.472656 293.960938 278.132812 293.363281 278.761719 292.738281 L 292.738281 278.777344 C 293.363281 278.148438 293.957031 277.492188 294.519531 276.804688 C 295.082031 276.117188 295.609375 275.402344 296.101562 274.664062 C 296.59375 273.925781 297.050781 273.164062 297.46875 272.382812 C 297.882812 271.597656 298.261719 270.796875 298.601562 269.976562 C 298.941406 269.15625 299.238281 268.320312 299.496094 267.46875 C 299.753906 266.621094 299.96875 265.757812 300.140625 264.886719 C 300.3125 264.015625 300.445312 263.140625 300.53125 262.257812 C 300.617188 261.371094 300.660156 260.488281 300.660156 259.597656 C 300.660156 258.710938 300.617188 257.824219 300.53125 256.941406 C 300.445312 256.058594 300.3125 255.179688 300.140625 254.308594 C 299.96875 253.4375 299.753906 252.578125 299.496094 251.730469 C 299.238281 250.878906 298.941406 250.042969 298.601562 249.222656 C 298.261719 248.402344 297.882812 247.601562 297.464844 246.816406 C 297.050781 246.035156 296.59375 245.273438 296.101562 244.535156 C 295.609375 243.792969 295.082031 243.082031 294.519531 242.394531 C 293.957031 241.707031 293.363281 241.046875 292.738281 240.417969 L 291.894531 239.578125 C 291.289062 238.957031 290.789062 238.261719 290.390625 237.492188 C 289.996094 236.71875 289.71875 235.90625 289.566406 235.054688 C 289.414062 234.199219 289.390625 233.34375 289.496094 232.484375 C 289.601562 231.621094 289.832031 230.796875 290.183594 230.003906 C 290.5 229.214844 290.925781 228.488281 291.460938 227.824219 C 291.992188 227.164062 292.613281 226.59375 293.316406 226.117188 C 294.019531 225.636719 294.777344 225.273438 295.589844 225.019531 C 296.402344 224.769531 297.234375 224.640625 298.082031 224.640625 L 299.269531 224.640625 C 300.15625 224.636719 301.042969 224.59375 301.925781 224.503906 C 302.808594 224.417969 303.6875 224.285156 304.558594 224.113281 C 305.425781 223.9375 306.289062 223.722656 307.136719 223.464844 C 307.988281 223.207031 308.820312 222.90625 309.640625 222.566406 C 310.460938 222.226562 311.265625 221.847656 312.046875 221.429688 C 312.832031 221.007812 313.589844 220.554688 314.328125 220.058594 C 315.066406 219.566406 315.78125 219.039062 316.464844 218.472656 C 317.152344 217.910156 317.808594 217.316406 318.4375 216.6875 C 319.066406 216.058594 319.660156 215.402344 320.222656 214.714844 C 320.789062 214.03125 321.316406 213.316406 321.808594 212.578125 C 322.304688 211.839844 322.757812 211.078125 323.179688 210.296875 C 323.597656 209.515625 323.976562 208.710938 324.316406 207.890625 C 324.65625 207.070312 324.957031 206.238281 325.214844 205.386719 C 325.472656 204.539062 325.6875 203.679688 325.863281 202.808594 C 326.035156 201.9375 326.167969 201.058594 326.253906 200.175781 C 326.34375 199.292969 326.386719 198.40625 326.390625 197.519531 L 326.390625 177.761719 C 326.386719 176.871094 326.34375 175.984375 326.253906 175.101562 C 326.167969 174.21875 326.035156 173.339844 325.863281 172.472656 C 325.6875 171.601562 325.472656 170.738281 325.214844 169.890625 C 324.957031 169.039062 324.65625 168.207031 324.316406 167.386719 C 323.976562 166.566406 323.597656 165.761719 323.179688 164.980469 C 322.757812 164.199219 322.304688 163.4375 321.808594 162.699219 C 321.316406 161.960938 320.789062 161.25 320.222656 160.5625 C 319.660156 159.875 319.066406 159.21875 318.4375 158.589844 C 317.808594 157.960938 317.152344 157.367188 316.464844 156.804688 C 315.78125 156.238281 315.066406 155.710938 314.328125 155.21875 C 313.589844 154.722656 312.828125 154.269531 312.046875 153.847656 C 311.265625 153.429688 310.460938 153.050781 309.640625 152.710938 C 308.820312 152.371094 307.988281 152.070312 307.136719 151.8125 C 306.289062 151.554688 305.425781 151.339844 304.558594 151.164062 C 303.6875 150.992188 302.808594 150.859375 301.925781 150.773438 C 301.042969 150.683594 300.15625 150.640625 299.269531 150.640625 Z M 307.890625 197.519531 C 307.886719 198.082031 307.832031 198.644531 307.722656 199.199219 C 307.609375 199.753906 307.445312 200.292969 307.230469 200.816406 C 307.011719 201.339844 306.746094 201.835938 306.433594 202.304688 C 306.117188 202.777344 305.761719 203.210938 305.359375 203.609375 C 304.960938 204.011719 304.527344 204.367188 304.054688 204.683594 C 303.585938 204.996094 303.089844 205.261719 302.566406 205.480469 C 302.042969 205.695312 301.503906 205.859375 300.949219 205.972656 C 300.394531 206.082031 299.832031 206.136719 299.269531 206.140625 L 298.082031 206.140625 C 296.75 206.148438 295.421875 206.257812 294.101562 206.464844 C 292.785156 206.671875 291.488281 206.96875 290.210938 207.367188 C 288.9375 207.761719 287.699219 208.25 286.496094 208.824219 C 285.292969 209.402344 284.136719 210.0625 283.03125 210.808594 C 281.921875 211.554688 280.875 212.378906 279.890625 213.277344 C 278.902344 214.179688 277.988281 215.144531 277.144531 216.179688 C 276.300781 217.210938 275.535156 218.300781 274.847656 219.449219 C 274.164062 220.59375 273.566406 221.78125 273.054688 223.015625 C 272.542969 224.25 272.125 225.511719 271.800781 226.808594 C 271.476562 228.101562 271.246094 229.414062 271.109375 230.742188 C 270.976562 232.070312 270.941406 233.398438 271.003906 234.734375 C 271.0625 236.066406 271.222656 237.386719 271.476562 238.699219 C 271.730469 240.007812 272.078125 241.292969 272.523438 242.554688 C 272.964844 243.8125 273.496094 245.03125 274.117188 246.214844 C 274.742188 247.394531 275.445312 248.523438 276.230469 249.601562 C 277.019531 250.679688 277.878906 251.695312 278.816406 252.648438 L 279.648438 253.488281 C 280.046875 253.890625 280.40625 254.328125 280.71875 254.796875 C 281.035156 255.269531 281.296875 255.765625 281.515625 256.289062 C 281.730469 256.8125 281.894531 257.351562 282.003906 257.90625 C 282.117188 258.464844 282.171875 259.023438 282.171875 259.589844 C 282.171875 260.15625 282.117188 260.71875 282.003906 261.273438 C 281.894531 261.828125 281.730469 262.367188 281.515625 262.890625 C 281.296875 263.414062 281.035156 263.910156 280.71875 264.382812 C 280.40625 264.851562 280.046875 265.289062 279.648438 265.691406 L 265.671875 279.648438 C 265.273438 280.046875 264.835938 280.40625 264.367188 280.71875 C 263.894531 281.035156 263.398438 281.300781 262.875 281.515625 C 262.351562 281.734375 261.8125 281.898438 261.257812 282.007812 C 260.703125 282.117188 260.140625 282.171875 259.574219 282.171875 C 259.011719 282.171875 258.449219 282.117188 257.894531 282.007812 C 257.339844 281.898438 256.800781 281.734375 256.277344 281.515625 C 255.753906 281.300781 255.257812 281.035156 254.785156 280.71875 C 254.316406 280.40625 253.878906 280.046875 253.480469 279.648438 L 252.648438 278.808594 C 251.695312 277.871094 250.679688 277.011719 249.601562 276.226562 C 248.523438 275.441406 247.394531 274.738281 246.210938 274.117188 C 245.03125 273.496094 243.8125 272.964844 242.550781 272.523438 C 241.292969 272.078125 240.007812 271.730469 238.699219 271.476562 C 237.390625 271.222656 236.066406 271.066406 234.734375 271.003906 C 233.402344 270.945312 232.070312 270.980469 230.742188 271.113281 C 229.417969 271.25 228.105469 271.480469 226.8125 271.804688 C 225.515625 272.128906 224.253906 272.550781 223.019531 273.058594 C 221.789062 273.570312 220.597656 274.167969 219.453125 274.851562 C 218.308594 275.539062 217.21875 276.300781 216.1875 277.144531 C 215.152344 277.988281 214.1875 278.90625 213.285156 279.890625 C 212.386719 280.875 211.5625 281.921875 210.816406 283.027344 C 210.070312 284.132812 209.410156 285.289062 208.832031 286.492188 C 208.253906 287.695312 207.769531 288.933594 207.371094 290.207031 C 206.976562 291.480469 206.671875 292.777344 206.46875 294.097656 C 206.261719 295.414062 206.152344 296.742188 206.140625 298.074219 L 206.140625 299.269531 C 206.136719 299.832031 206.082031 300.394531 205.972656 300.949219 C 205.859375 301.503906 205.695312 302.042969 205.480469 302.566406 C 205.261719 303.089844 204.996094 303.585938 204.683594 304.054688 C 204.367188 304.527344 204.011719 304.960938 203.609375 305.359375 C 203.210938 305.761719 202.777344 306.117188 202.304688 306.433594 C 201.835938 306.746094 201.339844 307.011719 200.816406 307.230469 C 200.292969 307.445312 199.753906 307.609375 199.199219 307.722656 C 198.644531 307.832031 198.082031 307.886719 197.519531 307.890625 L 177.761719 307.890625 C 177.195312 307.886719 176.632812 307.832031 176.078125 307.722656 C 175.523438 307.609375 174.984375 307.445312 174.460938 307.230469 C 173.941406 307.011719 173.441406 306.746094 172.972656 306.433594 C 172.503906 306.117188 172.066406 305.761719 171.667969 305.359375 C 171.265625 304.960938 170.910156 304.527344 170.59375 304.054688 C 170.28125 303.585938 170.015625 303.089844 169.796875 302.566406 C 169.582031 302.042969 169.417969 301.503906 169.304688 300.949219 C 169.195312 300.394531 169.140625 299.832031 169.140625 299.269531 L 169.140625 298.074219 C 169.132812 296.738281 169.027344 295.410156 168.828125 294.085938 C 168.625 292.765625 168.328125 291.464844 167.933594 290.1875 C 167.542969 288.910156 167.058594 287.667969 166.484375 286.460938 C 165.90625 285.253906 165.246094 284.09375 164.5 282.984375 C 163.753906 281.875 162.933594 280.824219 162.035156 279.835938 C 161.132812 278.847656 160.167969 277.929688 159.132812 277.082031 C 158.097656 276.238281 157.007812 275.46875 155.859375 274.785156 C 154.710938 274.097656 153.519531 273.496094 152.285156 272.988281 C 151.050781 272.476562 149.785156 272.054688 148.488281 271.730469 C 147.191406 271.40625 145.878906 271.175781 144.546875 271.042969 C 143.214844 270.910156 141.882812 270.878906 140.546875 270.941406 C 139.210938 271.003906 137.890625 271.164062 136.578125 271.421875 C 135.265625 271.679688 133.980469 272.03125 132.71875 272.480469 C 131.460938 272.925781 130.238281 273.460938 129.058594 274.089844 C 127.875 274.714844 126.746094 275.425781 125.671875 276.214844 C 124.59375 277.007812 123.578125 277.875 122.628906 278.816406 L 121.789062 279.65625 C 121.386719 280.058594 120.953125 280.414062 120.480469 280.726562 C 120.007812 281.039062 119.511719 281.304688 118.988281 281.519531 C 118.46875 281.738281 117.929688 281.898438 117.375 282.011719 C 116.820312 282.121094 116.257812 282.175781 115.691406 282.175781 C 115.125 282.175781 114.566406 282.121094 114.011719 282.011719 C 113.457031 281.898438 112.917969 281.738281 112.394531 281.519531 C 111.871094 281.304688 111.375 281.039062 110.902344 280.726562 C 110.433594 280.414062 109.996094 280.058594 109.597656 279.65625 L 95.628906 265.699219 C 95.230469 265.296875 94.871094 264.863281 94.558594 264.390625 C 94.246094 263.921875 93.980469 263.421875 93.761719 262.898438 C 93.546875 262.375 93.382812 261.835938 93.273438 261.28125 C 93.164062 260.726562 93.105469 260.164062 93.105469 259.597656 C 93.105469 259.03125 93.164062 258.472656 93.273438 257.917969 C 93.382812 257.359375 93.546875 256.820312 93.761719 256.296875 C 93.980469 255.773438 94.246094 255.277344 94.558594 254.808594 C 94.871094 254.335938 95.230469 253.898438 95.628906 253.5 L 96.472656 252.65625 C 97.40625 251.707031 98.269531 250.691406 99.058594 249.613281 C 99.84375 248.535156 100.550781 247.402344 101.171875 246.222656 C 101.796875 245.039062 102.328125 243.820312 102.769531 242.558594 C 103.214844 241.300781 103.5625 240.015625 103.820312 238.703125 C 104.074219 237.394531 104.230469 236.070312 104.292969 234.738281 C 104.355469 233.402344 104.320312 232.070312 104.183594 230.742188 C 104.050781 229.414062 103.820312 228.101562 103.496094 226.804688 C 103.167969 225.511719 102.75 224.246094 102.238281 223.011719 C 101.726562 221.78125 101.128906 220.589844 100.445312 219.445312 C 99.757812 218.296875 98.992188 217.207031 98.148438 216.171875 C 97.300781 215.140625 96.386719 214.171875 95.398438 213.273438 C 94.414062 212.375 93.363281 211.550781 92.257812 210.804688 C 91.148438 210.058594 89.992188 209.398438 88.789062 208.820312 C 87.585938 208.242188 86.34375 207.757812 85.070312 207.363281 C 83.792969 206.96875 82.496094 206.667969 81.175781 206.460938 C 79.855469 206.257812 78.53125 206.148438 77.195312 206.140625 L 76.011719 206.140625 C 75.445312 206.136719 74.882812 206.082031 74.328125 205.972656 C 73.773438 205.859375 73.234375 205.695312 72.710938 205.480469 C 72.191406 205.261719 71.691406 204.996094 71.222656 204.683594 C 70.753906 204.367188 70.316406 204.011719 69.917969 203.609375 C 69.515625 203.210938 69.160156 202.777344 68.84375 202.304688 C 68.53125 201.835938 68.265625 201.339844 68.046875 200.816406 C 67.832031 200.292969 67.667969 199.753906 67.554688 199.199219 C 67.445312 198.644531 67.390625 198.082031 67.390625 197.519531 L 67.390625 177.761719 C 67.390625 177.195312 67.445312 176.632812 67.554688 176.078125 C 67.667969 175.523438 67.832031 174.984375 68.046875 174.460938 C 68.265625 173.941406 68.53125 173.441406 68.84375 172.972656 C 69.160156 172.503906 69.515625 172.066406 69.917969 171.667969 C 70.316406 171.265625 70.753906 170.910156 71.222656 170.59375 C 71.691406 170.28125 72.191406 170.015625 72.710938 169.796875 C 73.234375 169.582031 73.773438 169.417969 74.328125 169.304688 C 74.882812 169.195312 75.445312 169.140625 76.011719 169.140625 L 77.195312 169.140625 C 78.527344 169.128906 79.855469 169.019531 81.175781 168.8125 C 82.492188 168.609375 83.789062 168.308594 85.066406 167.910156 C 86.339844 167.515625 87.578125 167.03125 88.78125 166.453125 C 89.984375 165.875 91.140625 165.214844 92.25 164.46875 C 93.355469 163.722656 94.402344 162.898438 95.386719 162 C 96.375 161.097656 97.289062 160.132812 98.132812 159.097656 C 98.976562 158.066406 99.742188 156.976562 100.429688 155.832031 C 101.113281 154.683594 101.710938 153.496094 102.222656 152.261719 C 102.734375 151.027344 103.152344 149.765625 103.476562 148.46875 C 103.804688 147.175781 104.03125 145.863281 104.167969 144.535156 C 104.300781 143.207031 104.335938 141.878906 104.277344 140.542969 C 104.214844 139.210938 104.054688 137.890625 103.800781 136.578125 C 103.546875 135.269531 103.199219 133.984375 102.753906 132.726562 C 102.3125 131.464844 101.78125 130.246094 101.160156 129.0625 C 100.535156 127.882812 99.832031 126.753906 99.046875 125.675781 C 98.257812 124.597656 97.398438 123.582031 96.460938 122.628906 L 95.628906 121.789062 C 95.230469 121.386719 94.871094 120.953125 94.558594 120.480469 C 94.246094 120.011719 93.980469 119.511719 93.761719 118.992188 C 93.546875 118.46875 93.382812 117.929688 93.273438 117.375 C 93.164062 116.820312 93.109375 116.257812 93.109375 115.691406 C 93.109375 115.125 93.164062 114.566406 93.273438 114.011719 C 93.382812 113.457031 93.546875 112.917969 93.761719 112.394531 C 93.980469 111.871094 94.246094 111.375 94.558594 110.902344 C 94.871094 110.433594 95.230469 109.996094 95.628906 109.597656 L 109.597656 95.621094 C 109.996094 95.21875 110.433594 94.863281 110.902344 94.546875 C 111.375 94.234375 111.871094 93.96875 112.394531 93.75 C 112.917969 93.535156 113.457031 93.371094 114.011719 93.261719 C 114.566406 93.148438 115.125 93.09375 115.691406 93.09375 C 116.257812 93.09375 116.820312 93.148438 117.375 93.261719 C 117.929688 93.371094 118.46875 93.535156 118.992188 93.75 C 119.515625 93.96875 120.011719 94.234375 120.480469 94.546875 C 120.953125 94.863281 121.386719 95.21875 121.789062 95.621094 L 122.621094 96.460938 C 123.574219 97.398438 124.589844 98.257812 125.667969 99.042969 C 126.746094 99.832031 127.875 100.535156 129.054688 101.15625 C 130.234375 101.777344 131.457031 102.308594 132.714844 102.753906 C 133.972656 103.195312 135.257812 103.542969 136.570312 103.796875 C 137.878906 104.054688 139.199219 104.210938 140.535156 104.273438 C 141.867188 104.332031 143.199219 104.296875 144.527344 104.164062 C 145.855469 104.03125 147.164062 103.800781 148.460938 103.472656 C 149.753906 103.148438 151.015625 102.730469 152.25 102.21875 C 153.484375 101.710938 154.671875 101.113281 155.820312 100.429688 C 156.964844 99.742188 158.054688 98.980469 159.085938 98.132812 C 160.121094 97.289062 161.089844 96.375 161.988281 95.390625 C 162.886719 94.40625 163.710938 93.359375 164.457031 92.253906 C 165.203125 91.144531 165.867188 89.992188 166.445312 88.789062 C 167.023438 87.585938 167.507812 86.347656 167.90625 85.070312 C 168.300781 83.796875 168.605469 82.5 168.808594 81.183594 C 169.015625 79.863281 169.125 78.539062 169.140625 77.203125 L 169.140625 76.011719 C 169.140625 75.445312 169.195312 74.882812 169.304688 74.328125 C 169.417969 73.773438 169.582031 73.234375 169.796875 72.710938 C 170.015625 72.191406 170.28125 71.691406 170.59375 71.222656 C 170.910156 70.753906 171.265625 70.316406 171.667969 69.917969 C 172.066406 69.515625 172.503906 69.160156 172.972656 68.84375 C 173.441406 68.53125 173.941406 68.265625 174.460938 68.046875 C 174.984375 67.832031 175.523438 67.667969 176.078125 67.554688 C 176.632812 67.445312 177.195312 67.390625 177.761719 67.390625 L 197.519531 67.390625 C 198.082031 67.390625 198.644531 67.445312 199.199219 67.554688 C 199.753906 67.667969 200.292969 67.832031 200.816406 68.046875 C 201.339844 68.265625 201.835938 68.53125 202.304688 68.84375 C 202.777344 69.160156 203.210938 69.515625 203.609375 69.917969 C 204.011719 70.316406 204.367188 70.753906 204.683594 71.222656 C 204.996094 71.691406 205.261719 72.191406 205.480469 72.710938 C 205.695312 73.234375 205.859375 73.773438 205.972656 74.328125 C 206.082031 74.882812 206.136719 75.445312 206.140625 76.011719 L 206.140625 77.203125 C 206.152344 78.539062 206.257812 79.863281 206.464844 81.183594 C 206.671875 82.5 206.972656 83.796875 207.367188 85.074219 C 207.765625 86.347656 208.25 87.585938 208.828125 88.789062 C 209.40625 89.992188 210.066406 91.148438 210.8125 92.253906 C 211.5625 93.359375 212.382812 94.40625 213.285156 95.390625 C 214.183594 96.378906 215.148438 97.292969 216.183594 98.136719 C 217.214844 98.980469 218.304688 99.746094 219.453125 100.429688 C 220.597656 101.117188 221.785156 101.714844 223.019531 102.222656 C 224.253906 102.734375 225.515625 103.152344 226.8125 103.476562 C 228.105469 103.804688 229.417969 104.035156 230.746094 104.167969 C 232.074219 104.300781 233.402344 104.335938 234.734375 104.277344 C 236.070312 104.214844 237.390625 104.054688 238.699219 103.800781 C 240.011719 103.546875 241.296875 103.199219 242.554688 102.753906 C 243.8125 102.3125 245.035156 101.78125 246.214844 101.15625 C 247.394531 100.535156 248.523438 99.832031 249.601562 99.046875 C 250.679688 98.257812 251.695312 97.398438 252.648438 96.460938 L 253.488281 95.621094 C 253.890625 95.21875 254.324219 94.863281 254.796875 94.546875 C 255.265625 94.234375 255.761719 93.96875 256.285156 93.75 C 256.808594 93.535156 257.347656 93.371094 257.902344 93.261719 C 258.457031 93.148438 259.019531 93.09375 259.585938 93.09375 C 260.152344 93.09375 260.710938 93.148438 261.265625 93.261719 C 261.824219 93.371094 262.363281 93.535156 262.882812 93.75 C 263.40625 93.96875 263.902344 94.234375 264.375 94.546875 C 264.84375 94.863281 265.28125 95.21875 265.679688 95.621094 L 279.648438 109.597656 C 280.046875 109.996094 280.40625 110.433594 280.71875 110.902344 C 281.03125 111.375 281.296875 111.871094 281.515625 112.394531 C 281.730469 112.917969 281.894531 113.457031 282.003906 114.011719 C 282.113281 114.566406 282.167969 115.125 282.167969 115.691406 C 282.167969 116.257812 282.113281 116.820312 282.003906 117.375 C 281.894531 117.929688 281.730469 118.46875 281.515625 118.992188 C 281.296875 119.511719 281.03125 120.011719 280.71875 120.480469 C 280.40625 120.953125 280.046875 121.386719 279.648438 121.789062 L 278.808594 122.628906 C 277.871094 123.582031 277.007812 124.597656 276.222656 125.675781 C 275.433594 126.753906 274.730469 127.882812 274.109375 129.066406 C 273.488281 130.246094 272.957031 131.46875 272.511719 132.726562 C 272.070312 133.984375 271.722656 135.269531 271.464844 136.582031 C 271.210938 137.890625 271.054688 139.214844 270.992188 140.546875 C 270.933594 141.882812 270.96875 143.210938 271.101562 144.539062 C 271.234375 145.867188 271.464844 147.179688 271.792969 148.472656 C 272.117188 149.769531 272.535156 151.03125 273.046875 152.265625 C 273.558594 153.5 274.15625 154.6875 274.84375 155.835938 C 275.527344 156.980469 276.292969 158.070312 277.136719 159.101562 C 277.984375 160.136719 278.898438 161.101562 279.886719 162.003906 C 280.871094 162.902344 281.917969 163.726562 283.027344 164.472656 C 284.132812 165.21875 285.289062 165.878906 286.492188 166.457031 C 287.695312 167.03125 288.9375 167.519531 290.210938 167.914062 C 291.488281 168.308594 292.785156 168.609375 294.101562 168.816406 C 295.421875 169.019531 296.75 169.128906 298.082031 169.140625 L 299.269531 169.140625 C 299.832031 169.140625 300.394531 169.195312 300.949219 169.304688 C 301.503906 169.417969 302.042969 169.582031 302.566406 169.796875 C 303.089844 170.015625 303.585938 170.28125 304.054688 170.59375 C 304.527344 170.910156 304.960938 171.265625 305.359375 171.667969 C 305.761719 172.066406 306.117188 172.503906 306.433594 172.972656 C 306.746094 173.441406 307.011719 173.941406 307.230469 174.460938 C 307.445312 174.984375 307.609375 175.523438 307.722656 176.078125 C 307.832031 176.632812 307.886719 177.195312 307.890625 177.761719 Z M 307.890625 197.519531 "/></g><path style=" stroke:none;fill-rule:nonzero;fill:#000000;fill-opacity:1;" d="M 187.640625 122.890625 C 186.578125 122.890625 185.519531 122.914062 184.460938 122.96875 C 183.402344 123.019531 182.347656 123.097656 181.292969 123.199219 C 180.238281 123.304688 179.1875 123.433594 178.136719 123.589844 C 177.089844 123.746094 176.046875 123.925781 175.007812 124.132812 C 173.96875 124.339844 172.933594 124.570312 171.90625 124.828125 C 170.878906 125.085938 169.855469 125.371094 168.84375 125.675781 C 167.828125 125.984375 166.824219 126.316406 165.824219 126.675781 C 164.828125 127.03125 163.839844 127.414062 162.859375 127.816406 C 161.882812 128.222656 160.914062 128.652344 159.953125 129.105469 C 158.996094 129.558594 158.050781 130.035156 157.117188 130.535156 C 156.179688 131.035156 155.257812 131.554688 154.351562 132.101562 C 153.441406 132.644531 152.546875 133.210938 151.664062 133.800781 C 150.785156 134.390625 149.917969 135 149.066406 135.632812 C 148.214844 136.261719 147.382812 136.914062 146.5625 137.585938 C 145.742188 138.257812 144.941406 138.949219 144.15625 139.664062 C 143.371094 140.375 142.601562 141.105469 141.855469 141.855469 C 141.105469 142.601562 140.375 143.371094 139.664062 144.15625 C 138.949219 144.941406 138.257812 145.742188 137.585938 146.5625 C 136.914062 147.382812 136.261719 148.214844 135.632812 149.066406 C 135 149.917969 134.390625 150.785156 133.800781 151.664062 C 133.210938 152.546875 132.644531 153.441406 132.101562 154.351562 C 131.554688 155.257812 131.035156 156.179688 130.535156 157.117188 C 130.035156 158.050781 129.558594 158.996094 129.105469 159.953125 C 128.652344 160.914062 128.222656 161.882812 127.816406 162.859375 C 127.414062 163.839844 127.03125 164.828125 126.675781 165.824219 C 126.316406 166.824219 125.984375 167.828125 125.675781 168.84375 C 125.371094 169.855469 125.085938 170.878906 124.828125 171.90625 C 124.570312 172.933594 124.339844 173.96875 124.132812 175.007812 C 123.925781 176.046875 123.746094 177.089844 123.589844 178.136719 C 123.433594 179.1875 123.304688 180.238281 123.199219 181.292969 C 123.097656 182.347656 123.019531 183.402344 122.96875 184.460938 C 122.914062 185.519531 122.890625 186.578125 122.890625 187.640625 C 122.890625 188.699219 122.914062 189.757812 122.96875 190.816406 C 123.019531 191.875 123.097656 192.929688 123.199219 193.984375 C 123.304688 195.039062 123.433594 196.089844 123.589844 197.140625 C 123.746094 198.1875 123.925781 199.230469 124.132812 200.269531 C 124.339844 201.308594 124.570312 202.34375 124.828125 203.371094 C 125.085938 204.398438 125.371094 205.421875 125.675781 206.433594 C 125.984375 207.449219 126.316406 208.453125 126.675781 209.453125 C 127.03125 210.449219 127.414062 211.4375 127.816406 212.417969 C 128.222656 213.398438 128.652344 214.363281 129.105469 215.324219 C 129.558594 216.28125 130.035156 217.226562 130.535156 218.160156 C 131.035156 219.097656 131.554688 220.019531 132.101562 220.925781 C 132.644531 221.835938 133.210938 222.730469 133.800781 223.613281 C 134.390625 224.492188 135 225.359375 135.632812 226.210938 C 136.261719 227.0625 136.914062 227.898438 137.585938 228.714844 C 138.257812 229.535156 138.949219 230.335938 139.664062 231.121094 C 140.375 231.90625 141.105469 232.675781 141.855469 233.425781 C 142.601562 234.171875 143.371094 234.902344 144.15625 235.617188 C 144.941406 236.328125 145.742188 237.019531 146.5625 237.691406 C 147.382812 238.363281 148.214844 239.015625 149.066406 239.648438 C 149.917969 240.277344 150.785156 240.886719 151.664062 241.476562 C 152.546875 242.066406 153.441406 242.632812 154.351562 243.175781 C 155.257812 243.722656 156.179688 244.242188 157.117188 244.742188 C 158.050781 245.242188 158.996094 245.71875 159.953125 246.171875 C 160.914062 246.625 161.882812 247.054688 162.859375 247.460938 C 163.839844 247.867188 164.828125 248.246094 165.824219 248.605469 C 166.824219 248.960938 167.828125 249.292969 168.84375 249.601562 C 169.855469 249.910156 170.878906 250.191406 171.90625 250.449219 C 172.933594 250.707031 173.96875 250.9375 175.007812 251.144531 C 176.046875 251.351562 177.089844 251.53125 178.136719 251.6875 C 179.1875 251.84375 180.238281 251.972656 181.292969 252.078125 C 182.347656 252.179688 183.402344 252.257812 184.460938 252.3125 C 185.519531 252.363281 186.578125 252.390625 187.640625 252.390625 C 188.699219 252.390625 189.757812 252.363281 190.816406 252.3125 C 191.875 252.257812 192.929688 252.179688 193.984375 252.078125 C 195.039062 251.972656 196.089844 251.84375 197.140625 251.6875 C 198.1875 251.53125 199.230469 251.351562 200.269531 251.144531 C 201.308594 250.9375 202.34375 250.707031 203.371094 250.449219 C 204.398438 250.191406 205.421875 249.910156 206.433594 249.601562 C 207.449219 249.292969 208.453125 248.960938 209.453125 248.605469 C 210.449219 248.246094 211.4375 247.867188 212.417969 247.460938 C 213.398438 247.054688 214.363281 246.625 215.324219 246.171875 C 216.28125 245.71875 217.226562 245.242188 218.160156 244.742188 C 219.097656 244.242188 220.019531 243.722656 220.925781 243.175781 C 221.835938 242.632812 222.730469 242.066406 223.613281 241.476562 C 224.492188 240.886719 225.359375 240.277344 226.210938 239.648438 C 227.0625 239.015625 227.898438 238.363281 228.714844 237.691406 C 229.535156 237.019531 230.335938 236.328125 231.121094 235.617188 C 231.90625 234.902344 232.675781 234.171875 233.425781 233.425781 C 234.171875 232.675781 234.902344 231.90625 235.617188 231.121094 C 236.328125 230.335938 237.019531 229.535156 237.691406 228.714844 C 238.363281 227.898438 239.015625 227.0625 239.648438 226.210938 C 240.277344 225.359375 240.886719 224.492188 241.476562 223.613281 C 242.066406 222.730469 242.632812 221.835938 243.175781 220.925781 C 243.722656 220.019531 244.242188 219.097656 244.742188 218.160156 C 245.242188 217.226562 245.71875 216.28125 246.171875 215.324219 C 246.625 214.363281 247.054688 213.398438 247.460938 212.417969 C 247.867188 211.4375 248.246094 210.449219 248.605469 209.453125 C 248.960938 208.453125 249.292969 207.449219 249.601562 206.433594 C 249.910156 205.421875 250.191406 204.398438 250.449219 203.371094 C 250.707031 202.34375 250.9375 201.308594 251.144531 200.269531 C 251.351562 199.230469 251.53125 198.1875 251.6875 197.140625 C 251.84375 196.089844 251.972656 195.039062 252.078125 193.984375 C 252.179688 192.929688 252.257812 191.875 252.3125 190.816406 C 252.363281 189.757812 252.390625 188.699219 252.390625 187.640625 C 252.386719 186.578125 252.359375 185.519531 252.308594 184.460938 C 252.253906 183.40625 252.175781 182.347656 252.070312 181.292969 C 251.964844 180.242188 251.835938 179.191406 251.679688 178.140625 C 251.523438 177.09375 251.339844 176.050781 251.132812 175.011719 C 250.925781 173.972656 250.691406 172.941406 250.433594 171.914062 C 250.175781 170.886719 249.890625 169.863281 249.585938 168.851562 C 249.277344 167.835938 248.941406 166.832031 248.585938 165.835938 C 248.226562 164.839844 247.847656 163.851562 247.441406 162.871094 C 247.035156 161.894531 246.605469 160.925781 246.152344 159.96875 C 245.699219 159.011719 245.222656 158.066406 244.722656 157.128906 C 244.222656 156.195312 243.699219 155.273438 243.15625 154.367188 C 242.609375 153.457031 242.042969 152.5625 241.453125 151.683594 C 240.863281 150.800781 240.253906 149.9375 239.625 149.085938 C 238.992188 148.234375 238.339844 147.402344 237.667969 146.582031 C 236.996094 145.761719 236.304688 144.960938 235.59375 144.175781 C 234.882812 143.390625 234.152344 142.625 233.402344 141.875 C 232.652344 141.125 231.886719 140.394531 231.101562 139.683594 C 230.316406 138.972656 229.515625 138.28125 228.695312 137.609375 C 227.878906 136.9375 227.042969 136.285156 226.191406 135.652344 C 225.339844 135.023438 224.476562 134.414062 223.59375 133.824219 C 222.714844 133.234375 221.820312 132.667969 220.910156 132.125 C 220.003906 131.578125 219.082031 131.054688 218.148438 130.554688 C 217.214844 130.054688 216.265625 129.578125 215.308594 129.125 C 214.351562 128.671875 213.382812 128.242188 212.40625 127.835938 C 211.425781 127.429688 210.441406 127.050781 209.441406 126.691406 C 208.445312 126.335938 207.441406 126 206.425781 125.695312 C 205.414062 125.386719 204.390625 125.101562 203.363281 124.84375 C 202.335938 124.585938 201.304688 124.351562 200.265625 124.144531 C 199.226562 123.9375 198.183594 123.753906 197.136719 123.597656 C 196.089844 123.441406 195.039062 123.3125 193.984375 123.207031 C 192.929688 123.101562 191.871094 123.023438 190.816406 122.96875 C 189.757812 122.917969 188.699219 122.890625 187.640625 122.890625 Z M 187.640625 233.890625 C 186.125 233.890625 184.613281 233.816406 183.105469 233.667969 C 181.597656 233.519531 180.101562 233.296875 178.617188 233 C 177.128906 232.703125 175.664062 232.335938 174.214844 231.898438 C 172.765625 231.457031 171.339844 230.949219 169.941406 230.367188 C 168.539062 229.789062 167.171875 229.140625 165.835938 228.425781 C 164.5 227.714844 163.203125 226.9375 161.945312 226.09375 C 160.683594 225.253906 159.46875 224.351562 158.296875 223.390625 C 157.128906 222.429688 156.007812 221.414062 154.933594 220.34375 C 153.863281 219.269531 152.847656 218.152344 151.886719 216.980469 C 150.925781 215.808594 150.023438 214.59375 149.183594 213.332031 C 148.34375 212.074219 147.5625 210.777344 146.851562 209.441406 C 146.136719 208.105469 145.488281 206.738281 144.910156 205.339844 C 144.328125 203.9375 143.820312 202.515625 143.378906 201.066406 C 142.941406 199.613281 142.574219 198.148438 142.277344 196.660156 C 141.980469 195.175781 141.761719 193.679688 141.613281 192.171875 C 141.464844 190.664062 141.390625 189.152344 141.390625 187.640625 C 141.390625 186.125 141.464844 184.613281 141.613281 183.105469 C 141.761719 181.597656 141.980469 180.101562 142.277344 178.617188 C 142.574219 177.128906 142.941406 175.664062 143.378906 174.214844 C 143.820312 172.761719 144.328125 171.339844 144.910156 169.941406 C 145.488281 168.539062 146.136719 167.171875 146.851562 165.835938 C 147.5625 164.5 148.34375 163.203125 149.183594 161.945312 C 150.023438 160.683594 150.925781 159.46875 151.886719 158.296875 C 152.847656 157.128906 153.863281 156.007812 154.933594 154.933594 C 156.007812 153.863281 157.128906 152.847656 158.296875 151.886719 C 159.46875 150.925781 160.683594 150.023438 161.945312 149.183594 C 163.203125 148.34375 164.5 147.5625 165.835938 146.851562 C 167.171875 146.136719 168.539062 145.488281 169.941406 144.910156 C 171.339844 144.328125 172.765625 143.820312 174.214844 143.378906 C 175.664062 142.941406 177.128906 142.574219 178.617188 142.277344 C 180.101562 141.980469 181.597656 141.761719 183.105469 141.613281 C 184.613281 141.464844 186.125 141.390625 187.640625 141.390625 C 189.152344 141.390625 190.664062 141.464844 192.171875 141.613281 C 193.679688 141.761719 195.175781 141.980469 196.660156 142.277344 C 198.148438 142.574219 199.613281 142.941406 201.066406 143.378906 C 202.515625 143.820312 203.9375 144.328125 205.339844 144.910156 C 206.738281 145.488281 208.105469 146.136719 209.441406 146.851562 C 210.777344 147.5625 212.074219 148.34375 213.335938 149.183594 C 214.59375 150.023438 215.808594 150.925781 216.980469 151.886719 C 218.152344 152.847656 219.269531 153.863281 220.34375 154.933594 C 221.414062 156.007812 222.429688 157.128906 223.390625 158.296875 C 224.351562 159.46875 225.253906 160.683594 226.09375 161.945312 C 226.9375 163.203125 227.714844 164.5 228.425781 165.835938 C 229.140625 167.171875 229.789062 168.539062 230.367188 169.941406 C 230.949219 171.339844 231.457031 172.761719 231.898438 174.214844 C 232.335938 175.664062 232.703125 177.128906 233 178.617188 C 233.296875 180.101562 233.519531 181.597656 233.667969 183.105469 C 233.816406 184.613281 233.890625 186.125 233.890625 187.640625 C 233.886719 189.152344 233.8125 190.664062 233.660156 192.171875 C 233.511719 193.675781 233.289062 195.171875 232.992188 196.65625 C 232.695312 198.144531 232.324219 199.609375 231.886719 201.058594 C 231.445312 202.507812 230.933594 203.929688 230.351562 205.328125 C 229.773438 206.726562 229.125 208.09375 228.410156 209.429688 C 227.695312 210.765625 226.917969 212.0625 226.078125 213.320312 C 225.234375 214.578125 224.335938 215.792969 223.375 216.964844 C 222.414062 218.136719 221.398438 219.253906 220.328125 220.328125 C 219.253906 221.398438 218.136719 222.414062 216.964844 223.375 C 215.792969 224.335938 214.578125 225.234375 213.320312 226.078125 C 212.0625 226.917969 210.765625 227.695312 209.429688 228.410156 C 208.09375 229.125 206.726562 229.773438 205.328125 230.351562 C 203.929688 230.933594 202.507812 231.445312 201.058594 231.886719 C 199.609375 232.324219 198.144531 232.695312 196.65625 232.992188 C 195.171875 233.289062 193.675781 233.511719 192.171875 233.660156 C 190.664062 233.8125 189.152344 233.886719 187.640625 233.890625 Z M 187.640625 233.890625 "/></g></svg>