<svg xmlns="http://www.w3.org/2000/svg" xmlns:xlink="http://www.w3.org/1999/xlink" width="500" zoomAndPan="magnify" viewBox="0 0 375 374.999991" height="500" preserveAspectRatio="xMidYMid meet" version="1.2"><defs><clipPath id="540baf605f"><path d="M 67.570312 48.890625 L 307.429688 48.890625 L 307.429688 326.390625 L 67.570312 326.390625 Z M 67.570312 48.890625 "/></clipPath></defs><g id="cbb7a79c95"><rect x="0" width="375" y="0" height="374.999991" style="fill:#ffffff;fill-opacity:1;stroke:none;"/><rect x="0" width="375" y="0" height="374.999991" style="fill:#ffffff;fill-opacity:1;stroke:none;"/><g clip-rule="nonzero" clip-path="url(#540baf605f)"><path style=" stroke:none;fill-rule:nonzero;fill:#000000;fill-opacity:1;" d="M 307.570312 298.585938 C 307.570312 299.492188 307.523438 300.398438 307.433594 301.304688 C 307.347656 302.207031 307.214844 303.105469 307.035156 303.996094 C 306.859375 304.886719 306.640625 305.769531 306.375 306.636719 C 306.113281 307.507812 305.808594 308.359375 305.460938 309.199219 C 305.113281 310.039062 304.726562 310.859375 304.300781 311.660156 C 303.871094 312.460938 303.40625 313.238281 302.902344 313.996094 C 302.398438 314.75 301.859375 315.480469 301.28125 316.179688 C 300.707031 316.882812 300.097656 317.554688 299.457031 318.199219 C 298.816406 318.839844 298.144531 319.449219 297.445312 320.027344 C 296.742188 320.601562 296.015625 321.144531 295.261719 321.648438 C 294.507812 322.152344 293.730469 322.617188 292.929688 323.046875 C 292.128906 323.476562 291.3125 323.863281 290.472656 324.210938 C 289.636719 324.558594 288.78125 324.863281 287.914062 325.128906 C 287.046875 325.390625 286.167969 325.613281 285.277344 325.789062 C 284.390625 325.964844 283.492188 326.097656 282.589844 326.1875 C 281.6875 326.277344 280.785156 326.320312 279.875 326.320312 L 150.644531 326.320312 C 149.738281 326.320312 148.832031 326.277344 147.929688 326.1875 C 147.027344 326.097656 146.132812 325.964844 145.242188 325.789062 C 144.355469 325.613281 143.476562 325.390625 142.605469 325.128906 C 141.738281 324.863281 140.886719 324.558594 140.046875 324.210938 C 139.210938 323.863281 138.390625 323.476562 137.589844 323.046875 C 136.792969 322.617188 136.015625 322.152344 135.261719 321.648438 C 134.507812 321.144531 133.777344 320.601562 133.078125 320.027344 C 132.375 319.449219 131.707031 318.839844 131.0625 318.199219 C 130.421875 317.554688 129.816406 316.882812 129.238281 316.179688 C 128.664062 315.480469 128.125 314.75 127.621094 313.996094 C 127.117188 313.238281 126.652344 312.460938 126.222656 311.660156 C 125.796875 310.859375 125.410156 310.039062 125.0625 309.199219 C 124.714844 308.359375 124.410156 307.507812 124.144531 306.636719 C 123.882812 305.769531 123.664062 304.886719 123.484375 303.996094 C 123.308594 303.105469 123.175781 302.207031 123.085938 301.304688 C 122.996094 300.398438 122.953125 299.492188 122.953125 298.585938 L 122.953125 289.339844 L 95.261719 289.339844 C 94.355469 289.339844 93.449219 289.296875 92.546875 289.207031 C 91.644531 289.117188 90.75 288.984375 89.859375 288.808594 C 88.96875 288.628906 88.089844 288.410156 87.222656 288.144531 C 86.355469 287.882812 85.5 287.578125 84.664062 287.230469 C 83.824219 286.882812 83.007812 286.492188 82.207031 286.066406 C 81.40625 285.636719 80.628906 285.171875 79.875 284.664062 C 79.121094 284.160156 78.394531 283.621094 77.691406 283.042969 C 76.992188 282.46875 76.320312 281.859375 75.679688 281.214844 C 75.039062 280.574219 74.429688 279.902344 73.855469 279.199219 C 73.277344 278.496094 72.738281 277.769531 72.234375 277.011719 C 71.730469 276.257812 71.265625 275.480469 70.839844 274.679688 C 70.410156 273.878906 70.023438 273.058594 69.675781 272.21875 C 69.328125 271.378906 69.023438 270.523438 68.761719 269.65625 C 68.496094 268.785156 68.277344 267.90625 68.101562 267.015625 C 67.925781 266.125 67.792969 265.226562 67.703125 264.320312 C 67.613281 263.417969 67.570312 262.511719 67.570312 261.601562 L 67.570312 76.691406 C 67.570312 75.785156 67.613281 74.878906 67.703125 73.972656 C 67.792969 73.070312 67.925781 72.171875 68.101562 71.28125 C 68.277344 70.390625 68.496094 69.511719 68.761719 68.640625 C 69.023438 67.773438 69.328125 66.917969 69.675781 66.078125 C 70.023438 65.238281 70.410156 64.417969 70.839844 63.617188 C 71.265625 62.816406 71.730469 62.039062 72.234375 61.28125 C 72.738281 60.527344 73.277344 59.796875 73.855469 59.097656 C 74.429688 58.394531 75.039062 57.722656 75.679688 57.078125 C 76.320312 56.4375 76.992188 55.828125 77.691406 55.25 C 78.394531 54.675781 79.121094 54.136719 79.875 53.628906 C 80.628906 53.125 81.40625 52.660156 82.207031 52.230469 C 83.007812 51.800781 83.824219 51.414062 84.664062 51.066406 C 85.5 50.71875 86.355469 50.414062 87.222656 50.148438 C 88.089844 49.886719 88.96875 49.664062 89.859375 49.488281 C 90.75 49.3125 91.644531 49.179688 92.546875 49.089844 C 93.449219 49 94.355469 48.957031 95.261719 48.957031 L 224.492188 48.957031 C 225.398438 48.957031 226.304688 49 227.207031 49.089844 C 228.109375 49.179688 229.003906 49.3125 229.894531 49.488281 C 230.785156 49.664062 231.664062 49.886719 232.53125 50.148438 C 233.398438 50.414062 234.25 50.71875 235.089844 51.066406 C 235.925781 51.414062 236.746094 51.800781 237.546875 52.230469 C 238.347656 52.660156 239.121094 53.125 239.875 53.628906 C 240.632812 54.136719 241.359375 54.675781 242.058594 55.25 C 242.761719 55.828125 243.433594 56.4375 244.074219 57.078125 C 244.714844 57.722656 245.324219 58.394531 245.898438 59.097656 C 246.472656 59.796875 247.011719 60.527344 247.515625 61.28125 C 248.019531 62.039062 248.488281 62.816406 248.914062 63.617188 C 249.34375 64.417969 249.730469 65.238281 250.078125 66.078125 C 250.421875 66.917969 250.726562 67.773438 250.992188 68.640625 C 251.253906 69.511719 251.476562 70.390625 251.652344 71.28125 C 251.828125 72.171875 251.960938 73.070312 252.050781 73.972656 C 252.140625 74.878906 252.183594 75.785156 252.183594 76.691406 L 252.183594 85.9375 L 279.875 85.9375 C 280.785156 85.9375 281.6875 85.980469 282.589844 86.070312 C 283.492188 86.160156 284.390625 86.292969 285.277344 86.472656 C 286.167969 86.648438 287.046875 86.867188 287.914062 87.132812 C 288.78125 87.394531 289.636719 87.703125 290.472656 88.050781 C 291.3125 88.398438 292.128906 88.785156 292.929688 89.214844 C 293.730469 89.640625 294.507812 90.109375 295.261719 90.613281 C 296.015625 91.117188 296.742188 91.65625 297.445312 92.234375 C 298.144531 92.808594 298.816406 93.417969 299.457031 94.0625 C 300.097656 94.703125 300.707031 95.375 301.28125 96.078125 C 301.859375 96.78125 302.398438 97.507812 302.902344 98.265625 C 303.40625 99.019531 303.871094 99.796875 304.300781 100.597656 C 304.726562 101.402344 305.113281 102.222656 305.460938 103.058594 C 305.808594 103.898438 306.113281 104.753906 306.375 105.621094 C 306.640625 106.492188 306.859375 107.371094 307.035156 108.261719 C 307.214844 109.15625 307.347656 110.050781 307.433594 110.957031 C 307.523438 111.859375 307.570312 112.765625 307.570312 113.675781 Z M 233.722656 76.691406 C 233.722656 76.085938 233.664062 75.484375 233.546875 74.886719 C 233.425781 74.292969 233.25 73.714844 233.019531 73.152344 C 232.789062 72.59375 232.503906 72.058594 232.167969 71.554688 C 231.832031 71.050781 231.449219 70.582031 231.019531 70.15625 C 230.589844 69.726562 230.125 69.34375 229.621094 69.003906 C 229.117188 68.667969 228.585938 68.382812 228.023438 68.152344 C 227.464844 67.917969 226.886719 67.742188 226.292969 67.625 C 225.699219 67.507812 225.097656 67.445312 224.492188 67.445312 L 95.261719 67.445312 C 94.65625 67.445312 94.054688 67.507812 93.460938 67.625 C 92.867188 67.742188 92.289062 67.917969 91.730469 68.152344 C 91.167969 68.382812 90.636719 68.667969 90.132812 69.003906 C 89.628906 69.34375 89.164062 69.726562 88.734375 70.15625 C 88.304688 70.582031 87.921875 71.050781 87.585938 71.554688 C 87.25 72.058594 86.964844 72.59375 86.734375 73.152344 C 86.5 73.714844 86.324219 74.292969 86.207031 74.886719 C 86.089844 75.484375 86.03125 76.085938 86.03125 76.691406 L 86.03125 261.601562 C 86.03125 262.210938 86.089844 262.8125 86.207031 263.40625 C 86.324219 264.003906 86.5 264.582031 86.734375 265.140625 C 86.964844 265.703125 87.25 266.234375 87.585938 266.738281 C 87.921875 267.246094 88.304688 267.710938 88.734375 268.140625 C 89.164062 268.570312 89.628906 268.953125 90.132812 269.289062 C 90.636719 269.628906 91.167969 269.914062 91.730469 270.144531 C 92.289062 270.378906 92.867188 270.550781 93.460938 270.671875 C 94.054688 270.789062 94.65625 270.847656 95.261719 270.847656 L 122.953125 270.847656 L 122.953125 113.675781 C 122.953125 112.765625 122.996094 111.859375 123.085938 110.957031 C 123.175781 110.050781 123.308594 109.15625 123.484375 108.261719 C 123.664062 107.371094 123.882812 106.492188 124.144531 105.621094 C 124.410156 104.753906 124.714844 103.898438 125.0625 103.058594 C 125.410156 102.222656 125.796875 101.402344 126.222656 100.597656 C 126.652344 99.796875 127.117188 99.019531 127.621094 98.265625 C 128.125 97.507812 128.664062 96.78125 129.238281 96.078125 C 129.816406 95.375 130.421875 94.703125 131.0625 94.0625 C 131.707031 93.417969 132.375 92.808594 133.078125 92.234375 C 133.777344 91.65625 134.507812 91.117188 135.261719 90.613281 C 136.015625 90.109375 136.792969 89.640625 137.589844 89.214844 C 138.390625 88.785156 139.210938 88.398438 140.046875 88.050781 C 140.886719 87.703125 141.738281 87.394531 142.605469 87.132812 C 143.476562 86.867188 144.355469 86.648438 145.242188 86.472656 C 146.132812 86.292969 147.027344 86.160156 147.929688 86.070312 C 148.832031 85.980469 149.738281 85.9375 150.644531 85.9375 L 233.722656 85.9375 Z M 289.105469 113.675781 C 289.105469 113.066406 289.046875 112.464844 288.929688 111.871094 C 288.8125 111.273438 288.636719 110.695312 288.40625 110.136719 C 288.171875 109.574219 287.886719 109.042969 287.550781 108.539062 C 287.214844 108.03125 286.832031 107.566406 286.402344 107.136719 C 285.976562 106.707031 285.507812 106.324219 285.003906 105.988281 C 284.5 105.648438 283.96875 105.363281 283.410156 105.132812 C 282.847656 104.902344 282.273438 104.726562 281.675781 104.605469 C 281.082031 104.488281 280.484375 104.429688 279.875 104.429688 L 150.644531 104.429688 C 150.039062 104.429688 149.4375 104.488281 148.84375 104.605469 C 148.25 104.726562 147.671875 104.902344 147.113281 105.132812 C 146.554688 105.363281 146.019531 105.648438 145.515625 105.988281 C 145.011719 106.324219 144.546875 106.707031 144.117188 107.136719 C 143.691406 107.566406 143.308594 108.03125 142.96875 108.539062 C 142.632812 109.042969 142.347656 109.574219 142.117188 110.136719 C 141.886719 110.695312 141.710938 111.273438 141.59375 111.871094 C 141.472656 112.464844 141.414062 113.066406 141.414062 113.675781 L 141.414062 298.585938 C 141.414062 299.191406 141.472656 299.792969 141.59375 300.390625 C 141.710938 300.984375 141.886719 301.5625 142.117188 302.125 C 142.347656 302.683594 142.632812 303.21875 142.96875 303.722656 C 143.308594 304.226562 143.691406 304.695312 144.117188 305.121094 C 144.546875 305.550781 145.011719 305.933594 145.515625 306.273438 C 146.019531 306.609375 146.554688 306.894531 147.113281 307.128906 C 147.671875 307.359375 148.25 307.535156 148.84375 307.652344 C 149.4375 307.773438 150.039062 307.832031 150.644531 307.832031 L 279.875 307.832031 C 280.484375 307.832031 281.082031 307.773438 281.675781 307.652344 C 282.273438 307.535156 282.847656 307.359375 283.410156 307.128906 C 283.96875 306.894531 284.5 306.609375 285.003906 306.273438 C 285.507812 305.933594 285.976562 305.550781 286.402344 305.121094 C 286.832031 304.695312 287.214844 304.226562 287.550781 303.722656 C 287.886719 303.21875 288.171875 302.683594 288.40625 302.125 C 288.636719 301.5625 288.8125 300.984375 288.929688 300.390625 C 289.046875 299.792969 289.105469 299.191406 289.105469 298.585938 Z M 289.105469 113.675781 "/></g></g></svg>