<svg xmlns="http://www.w3.org/2000/svg" xmlns:xlink="http://www.w3.org/1999/xlink" width="500" zoomAndPan="magnify" viewBox="0 0 375 374.999991" height="500" preserveAspectRatio="xMidYMid meet" version="1.2"><g id="a8c8e057e7"><rect x="0" width="375" y="0" height="374.999991" style="fill:#ffffff;fill-opacity:1;stroke:none;"/><rect x="0" width="375" y="0" height="374.999991" style="fill:#ffffff;fill-opacity:1;stroke:none;"/><path style=" stroke:none;fill-rule:nonzero;fill:#000000;fill-opacity:1;" d="M 88.367188 323.597656 L 125.402344 312.726562 C 128.40625 311.832031 131.25 310.574219 133.941406 308.964844 C 136.628906 307.351562 139.074219 305.433594 141.28125 303.210938 L 312.113281 132.378906 C 325.335938 119.160156 326.628906 98.941406 314.992188 87.308594 L 288.820312 61.132812 C 277.1875 49.488281 256.96875 50.789062 243.746094 64.015625 L 72.917969 234.84375 C 70.691406 237.046875 68.773438 239.496094 67.164062 242.183594 C 65.550781 244.867188 64.296875 247.714844 63.398438 250.714844 L 52.53125 287.757812 C 52.121094 289.003906 51.792969 290.273438 51.554688 291.566406 C 51.316406 292.855469 51.164062 294.15625 51.101562 295.46875 C 51.039062 296.78125 51.066406 298.089844 51.179688 299.398438 C 51.296875 300.707031 51.5 302 51.789062 303.28125 C 52.082031 304.5625 52.457031 305.816406 52.917969 307.046875 C 53.378906 308.273438 53.921875 309.46875 54.546875 310.625 C 55.167969 311.78125 55.867188 312.886719 56.640625 313.949219 C 57.414062 315.007812 58.257812 316.011719 59.167969 316.960938 C 60.476562 318.25 61.894531 319.402344 63.433594 320.414062 C 64.96875 321.421875 66.585938 322.273438 68.292969 322.960938 C 69.996094 323.648438 71.753906 324.160156 73.558594 324.5 C 75.367188 324.839844 77.1875 324.996094 79.027344 324.972656 C 82.207031 324.960938 85.320312 324.503906 88.367188 323.597656 Z M 259.761719 80.03125 C 260.957031 78.765625 262.347656 77.765625 263.929688 77.035156 C 265.511719 76.304688 267.171875 75.894531 268.910156 75.804688 C 269.621094 75.765625 270.316406 75.863281 270.988281 76.09375 C 271.664062 76.328125 272.269531 76.679688 272.804688 77.148438 L 298.980469 103.324219 C 301.375 105.722656 300.652344 111.808594 296.097656 116.363281 L 269.878906 142.582031 L 233.546875 106.246094 Z M 74.265625 294.140625 L 85.132812 257.089844 C 85.882812 254.699219 87.148438 252.621094 88.933594 250.859375 L 217.53125 122.261719 L 253.863281 158.597656 L 125.265625 287.195312 C 123.503906 288.980469 121.425781 290.246094 119.03125 290.992188 L 81.988281 301.859375 C 81.433594 302.09375 80.855469 302.25 80.257812 302.332031 C 79.660156 302.410156 79.0625 302.410156 78.464844 302.328125 C 77.867188 302.246094 77.289062 302.089844 76.734375 301.855469 C 76.175781 301.621094 75.660156 301.316406 75.1875 300.941406 C 74.816406 300.46875 74.511719 299.953125 74.273438 299.398438 C 74.039062 298.839844 73.882812 298.265625 73.800781 297.667969 C 73.71875 297.070312 73.71875 296.472656 73.796875 295.871094 C 73.878906 295.273438 74.03125 294.695312 74.265625 294.140625 Z M 74.265625 294.140625 "/></g></svg>