<svg xmlns="http://www.w3.org/2000/svg" xmlns:xlink="http://www.w3.org/1999/xlink" width="500" zoomAndPan="magnify" viewBox="0 0 375 374.999991" height="500" preserveAspectRatio="xMidYMid meet" version="1.2"><defs><clipPath id="f69fdad9fc"><path d="M 67 48.890625 L 308 48.890625 L 308 326.390625 L 67 326.390625 Z M 67 48.890625 "/></clipPath></defs><g id="2448799ca1"><rect x="0" width="375" y="0" height="374.999991" style="fill:#ffffff;fill-opacity:1;stroke:none;"/><rect x="0" width="375" y="0" height="374.999991" style="fill:#ffffff;fill-opacity:1;stroke:none;"/><g clip-rule="nonzero" clip-path="url(#f69fdad9fc)"><path style=" stroke:none;fill-rule:evenodd;fill:#000000;fill-opacity:1;" d="M 187.6875 128.269531 L 97.269531 128.269531 L 111.007812 301.441406 C 111.027344 301.699219 111.03125 301.949219 111.023438 302.203125 C 111.160156 305.375 112.125 307.859375 113.917969 309.652344 C 115.933594 311.667969 119.109375 313.078125 123.441406 313.878906 L 251.933594 313.878906 C 256.269531 313.082031 259.441406 311.667969 261.460938 309.652344 C 263.320312 307.789062 264.296875 305.171875 264.367188 301.804688 C 264.367188 301.683594 264.375 301.5625 264.386719 301.441406 L 264.367188 301.441406 L 278.109375 128.269531 Z M 133.207031 170.566406 C 132.9375 167.136719 135.5 164.140625 138.921875 163.871094 C 142.351562 163.597656 145.34375 166.164062 145.613281 169.589844 L 153.707031 271.585938 C 153.976562 275.015625 151.417969 278.011719 147.988281 278.28125 C 144.5625 278.546875 141.570312 275.988281 141.300781 272.558594 Z M 229.765625 169.589844 C 230.03125 166.160156 233.027344 163.597656 236.453125 163.871094 C 239.882812 164.140625 242.441406 167.136719 242.171875 170.566406 L 234.078125 272.558594 C 233.8125 275.992188 230.8125 278.550781 227.386719 278.28125 C 223.960938 278.011719 221.402344 275.011719 221.671875 271.585938 Z M 181.460938 170.078125 C 181.460938 166.636719 184.25 163.84375 187.6875 163.84375 C 191.125 163.84375 193.917969 166.636719 193.917969 170.078125 L 193.917969 272.074219 C 193.917969 275.515625 191.125 278.308594 187.6875 278.308594 C 184.246094 278.308594 181.460938 275.515625 181.460938 272.074219 Z M 250.613281 92.597656 L 89.75 92.597656 C 87.277344 92.597656 84.984375 93.792969 83.285156 95.71875 C 81.410156 97.847656 80.242188 100.847656 80.242188 104.203125 L 80.242188 115.804688 L 295.132812 115.804688 L 295.132812 104.203125 C 295.132812 100.847656 293.96875 97.847656 292.089844 95.71875 C 290.394531 93.796875 288.101562 92.597656 285.625 92.597656 Z M 89.75 80.128906 L 148.074219 80.128906 L 148.074219 78.101562 C 148.074219 70.847656 149.59375 64.128906 152.042969 59.148438 C 155.144531 52.839844 159.910156 48.925781 165.585938 48.925781 L 209.792969 48.925781 C 215.46875 48.925781 220.230469 52.84375 223.332031 59.148438 C 225.785156 64.128906 227.304688 70.851562 227.304688 78.105469 L 227.304688 80.132812 L 285.628906 80.132812 C 291.808594 80.132812 297.382812 82.949219 301.394531 87.488281 C 305.21875 91.828125 307.597656 97.753906 307.597656 104.203125 L 307.597656 122.039062 C 307.597656 125.480469 304.804688 128.273438 301.367188 128.273438 L 290.601562 128.273438 L 276.777344 302.417969 L 276.769531 302.417969 C 276.550781 309.003906 274.382812 314.351562 270.269531 318.46875 C 266.398438 322.34375 260.9375 324.914062 253.890625 326.171875 C 253.414062 326.289062 252.917969 326.351562 252.40625 326.351562 L 122.96875 326.351562 L 122.96875 326.335938 C 122.632812 326.335938 122.292969 326.308594 121.949219 326.253906 C 114.675781 325.023438 109.0625 322.429688 105.105469 318.46875 C 101.027344 314.386719 98.863281 309.097656 98.617188 302.59375 L 98.597656 302.417969 L 84.777344 128.273438 L 74.011719 128.273438 C 70.570312 128.273438 67.785156 125.480469 67.785156 122.039062 L 67.785156 104.203125 C 67.785156 97.75 70.160156 91.828125 73.988281 87.488281 C 77.996094 82.949219 83.574219 80.128906 89.75 80.128906 Z M 160.53125 80.128906 L 214.84375 80.128906 L 214.84375 78.101562 C 214.84375 72.734375 213.824219 67.980469 212.1875 64.648438 C 211.199219 62.640625 210.320312 61.394531 209.792969 61.394531 L 165.582031 61.394531 C 165.054688 61.394531 164.175781 62.640625 163.1875 64.648438 C 161.546875 67.980469 160.53125 72.734375 160.53125 78.101562 Z M 160.53125 80.128906 "/></g></g></svg>