<svg xmlns="http://www.w3.org/2000/svg" xmlns:xlink="http://www.w3.org/1999/xlink" width="500" zoomAndPan="magnify" viewBox="0 0 375 374.999991" height="500" preserveAspectRatio="xMidYMid meet" version="1.2"><defs><clipPath id="818e228ffa"><path d="M 118 48.890625 L 258 48.890625 L 258 264 L 118 264 Z M 118 48.890625 "/></clipPath><clipPath id="8c9f107a4e"><path d="M 48.890625 221 L 326.390625 221 L 326.390625 326.390625 L 48.890625 326.390625 Z M 48.890625 221 "/></clipPath></defs><g id="da80a41461"><rect x="0" width="375" y="0" height="374.999991" style="fill:#ffffff;fill-opacity:1;stroke:none;"/><rect x="0" width="375" y="0" height="374.999991" style="fill:#ffffff;fill-opacity:1;stroke:none;"/><g clip-rule="nonzero" clip-path="url(#818e228ffa)"><path style=" stroke:none;fill-rule:evenodd;fill:#000000;fill-opacity:1;" d="M 199.863281 221.070312 L 199.863281 61.113281 C 199.863281 57.875 198.605469 54.769531 196.292969 52.457031 C 193.980469 50.210938 190.875 48.890625 187.640625 48.890625 C 184.402344 48.890625 181.296875 50.210938 178.984375 52.457031 C 176.671875 54.769531 175.414062 57.875 175.414062 61.113281 L 175.414062 221.070312 C 175.414062 221.070312 152.09375 197.746094 139.078125 184.730469 C 136.765625 182.417969 133.660156 181.164062 130.421875 181.164062 C 127.183594 181.164062 124.078125 182.417969 121.765625 184.730469 C 117.007812 189.488281 117.007812 197.21875 121.765625 201.976562 L 179.445312 259.65625 C 181.625 261.835938 184.535156 263.027344 187.640625 263.027344 C 190.746094 263.027344 193.652344 261.835938 195.832031 259.65625 L 253.511719 201.976562 C 258.269531 197.21875 258.269531 189.488281 253.511719 184.730469 C 251.199219 182.417969 248.09375 181.164062 244.855469 181.164062 C 241.621094 181.164062 238.515625 182.417969 236.203125 184.730469 C 223.121094 197.746094 199.863281 221.070312 199.863281 221.070312 Z M 199.863281 221.070312 "/></g><g clip-rule="nonzero" clip-path="url(#8c9f107a4e)"><path style=" stroke:none;fill-rule:evenodd;fill:#000000;fill-opacity:1;" d="M 48.890625 303.265625 C 48.890625 309.410156 51.332031 315.289062 55.695312 319.582031 C 60.054688 323.945312 65.933594 326.390625 72.015625 326.390625 L 303.265625 326.390625 C 309.410156 326.390625 315.289062 323.945312 319.582031 319.582031 C 323.945312 315.222656 326.390625 309.34375 326.390625 303.265625 L 326.390625 233.292969 C 326.390625 226.554688 320.90625 221.070312 314.164062 221.070312 C 310.929688 221.070312 307.824219 222.390625 305.511719 224.640625 C 303.199219 226.953125 301.941406 230.058594 301.941406 233.292969 L 301.941406 290.445312 C 301.941406 296.855469 296.789062 302.007812 290.378906 302.007812 L 84.898438 302.007812 C 78.488281 302.007812 73.335938 296.855469 73.335938 290.445312 L 73.335938 233.292969 C 73.335938 230.058594 72.015625 226.953125 69.765625 224.640625 C 67.453125 222.328125 64.351562 221.070312 61.113281 221.070312 C 54.371094 221.070312 48.890625 226.554688 48.890625 233.292969 Z M 48.890625 303.265625 "/></g></g></svg>