<svg xmlns="http://www.w3.org/2000/svg" xmlns:xlink="http://www.w3.org/1999/xlink" width="500" zoomAndPan="magnify" viewBox="0 0 375 374.999991" height="500" preserveAspectRatio="xMidYMid meet" version="1.2"><defs><clipPath id="6c977dbf74"><path d="M 48.890625 48.890625 L 326.390625 48.890625 L 326.390625 326.390625 L 48.890625 326.390625 Z M 48.890625 48.890625 "/></clipPath></defs><g id="da85b2bb8c"><rect x="0" width="375" y="0" height="374.999991" style="fill:#ffffff;fill-opacity:1;stroke:none;"/><rect x="0" width="375" y="0" height="374.999991" style="fill:#ffffff;fill-opacity:1;stroke:none;"/><g clip-rule="nonzero" clip-path="url(#6c977dbf74)"><path style=" stroke:none;fill-rule:nonzero;fill:#070404;fill-opacity:1;" d="M 187.5 48.890625 C 110.945312 48.890625 48.890625 110.945312 48.890625 187.5 C 48.890625 264.050781 110.945312 326.109375 187.5 326.109375 C 264.050781 326.109375 326.109375 264.050781 326.109375 187.5 C 326.109375 110.945312 264.050781 48.890625 187.5 48.890625 Z M 268.097656 191.417969 C 264.148438 195.367188 258.316406 196.285156 253.488281 194.179688 L 253.488281 246.753906 C 253.488281 257.6875 244.625 266.550781 233.691406 266.550781 L 141.308594 266.550781 C 130.375 266.550781 121.511719 257.683594 121.511719 246.753906 L 121.511719 194.179688 C 116.679688 196.285156 110.851562 195.367188 106.898438 191.417969 C 101.746094 186.261719 101.746094 177.90625 106.898438 172.753906 L 178.164062 101.484375 C 183.320312 96.332031 191.675781 96.332031 196.828125 101.484375 L 268.097656 172.75 C 273.253906 177.90625 273.253906 186.261719 268.097656 191.417969 Z M 268.097656 191.417969 "/></g><path style=" stroke:none;fill-rule:nonzero;fill:#070404;fill-opacity:1;" d="M 203.996094 193.960938 L 171 193.960938 C 167.355469 193.960938 164.402344 196.917969 164.402344 200.5625 L 164.402344 240.152344 C 164.402344 243.796875 167.355469 246.753906 171 246.753906 L 203.996094 246.753906 C 207.640625 246.753906 210.59375 243.796875 210.59375 240.152344 L 210.59375 200.5625 C 210.59375 196.917969 207.640625 193.960938 203.996094 193.960938 Z M 203.996094 193.960938 "/></g></svg>