<svg xmlns="http://www.w3.org/2000/svg" xmlns:xlink="http://www.w3.org/1999/xlink" width="500" zoomAndPan="magnify" viewBox="0 0 375 374.999991" height="500" preserveAspectRatio="xMidYMid meet" version="1.2"><defs><clipPath id="995f29ce5a"><path d="M 48.890625 48.890625 L 326.390625 48.890625 L 326.390625 326.390625 L 48.890625 326.390625 Z M 48.890625 48.890625 "/></clipPath></defs><g id="4df9ec98f5"><rect x="0" width="375" y="0" height="374.999991" style="fill:#ffffff;fill-opacity:1;stroke:none;"/><rect x="0" width="375" y="0" height="374.999991" style="fill:#ffffff;fill-opacity:1;stroke:none;"/><g clip-rule="nonzero" clip-path="url(#995f29ce5a)"><path style=" stroke:none;fill-rule:evenodd;fill:#000000;fill-opacity:1;" d="M 187.640625 326.390625 C 111 326.390625 48.890625 264.277344 48.890625 187.640625 C 48.890625 111 111 48.890625 187.640625 48.890625 C 264.277344 48.890625 326.390625 111 326.390625 187.640625 C 326.390625 264.277344 264.277344 326.390625 187.640625 326.390625 Z M 187.640625 60.011719 C 117.183594 60.011719 60.011719 117.183594 60.011719 187.640625 C 60.011719 258.09375 117.183594 315.265625 187.640625 315.265625 C 258.09375 315.265625 315.265625 258.09375 315.265625 187.640625 C 315.265625 117.183594 258.09375 60.011719 187.640625 60.011719 Z M 176.515625 265.203125 L 165.390625 265.203125 L 165.390625 254.078125 L 176.515625 254.078125 L 176.515625 159.828125 L 165.390625 159.828125 L 165.390625 148.703125 L 198.761719 148.703125 L 198.761719 254.078125 L 209.886719 254.078125 L 209.886719 265.203125 Z M 187.640625 137.578125 C 178.367188 137.578125 170.953125 130.160156 170.953125 120.890625 C 170.953125 111.621094 178.367188 104.203125 187.640625 104.203125 C 196.910156 104.203125 204.324219 111.621094 204.324219 120.890625 C 204.324219 130.160156 196.910156 137.578125 187.640625 137.578125 Z M 187.640625 137.578125 "/></g></g></svg>