<svg xmlns="http://www.w3.org/2000/svg" xmlns:xlink="http://www.w3.org/1999/xlink" width="500" zoomAndPan="magnify" viewBox="0 0 375 374.999991" height="500" preserveAspectRatio="xMidYMid meet" version="1.2"><defs><clipPath id="19ed85c76f"><path d="M 95 48.890625 L 305.757812 48.890625 L 305.757812 314 L 95 314 Z M 95 48.890625 "/></clipPath><clipPath id="1c75f9524e"><path d="M 159 221 L 247 221 L 247 326.390625 L 159 326.390625 Z M 159 221 "/></clipPath><clipPath id="912d1fe019"><path d="M 69.507812 130 L 202 130 L 202 193 L 69.507812 193 Z M 69.507812 130 "/></clipPath></defs><g id="9a3e9412ef"><rect x="0" width="375" y="0" height="374.999991" style="fill:#ffffff;fill-opacity:1;stroke:none;"/><rect x="0" width="375" y="0" height="374.999991" style="fill:#ffffff;fill-opacity:1;stroke:none;"/><g clip-rule="nonzero" clip-path="url(#19ed85c76f)"><path style=" stroke:none;fill-rule:nonzero;fill:#231f20;fill-opacity:1;" d="M 304.089844 118.9375 L 230.628906 50.261719 C 229.683594 49.378906 228.4375 48.890625 227.136719 48.890625 L 113.40625 48.890625 C 103.332031 48.890625 95.140625 57.082031 95.140625 67.152344 L 95.140625 125.949219 L 105.355469 125.949219 L 105.355469 67.152344 C 105.355469 62.71875 108.964844 59.113281 113.398438 59.113281 L 220.984375 59.113281 L 220.984375 115.660156 C 220.984375 123.464844 227.339844 129.820312 235.144531 129.820312 L 295.484375 129.820312 L 295.484375 295.050781 C 295.484375 299.484375 291.875 303.09375 287.441406 303.09375 L 231.679688 303.09375 L 221.625 313.308594 L 287.441406 313.308594 C 297.507812 313.308594 305.699219 305.117188 305.699219 295.050781 L 305.699219 122.671875 C 305.710938 121.257812 305.128906 119.898438 304.089844 118.9375 Z M 231.207031 115.652344 L 231.207031 64.800781 L 289.828125 119.59375 L 235.152344 119.59375 C 232.980469 119.59375 231.207031 117.824219 231.207031 115.652344 Z M 231.207031 115.652344 "/></g><g clip-rule="nonzero" clip-path="url(#1c75f9524e)"><path style=" stroke:none;fill-rule:nonzero;fill:#231f20;fill-opacity:1;" d="M 225.652344 303.085938 L 246.113281 282.289062 L 222.914062 282.289062 L 222.914062 221.066406 L 182.511719 221.066406 L 182.511719 282.289062 L 159.320312 282.289062 L 179.78125 303.085938 L 189.835938 313.300781 L 202.71875 326.390625 L 215.597656 313.300781 Z M 225.652344 303.085938 "/></g><path style=" stroke:none;fill-rule:nonzero;fill:#231f20;fill-opacity:1;" d="M 113.40625 303.085938 C 108.972656 303.085938 105.363281 299.476562 105.363281 295.042969 L 105.363281 196.472656 L 95.140625 196.472656 L 95.140625 295.042969 C 95.140625 305.105469 103.332031 313.300781 113.40625 313.300781 L 183.800781 313.300781 L 173.746094 303.085938 Z M 113.40625 303.085938 "/><path style=" stroke:none;fill-rule:nonzero;fill:#231f20;fill-opacity:1;" d="M 143.253906 172.417969 C 145.355469 170.15625 146.398438 166.667969 146.398438 161.921875 C 146.398438 157.21875 145.335938 153.789062 143.222656 151.632812 C 141.105469 149.476562 138.105469 148.394531 134.226562 148.394531 L 131.226562 148.394531 L 131.226562 175.796875 L 134.226562 175.796875 C 138.144531 175.796875 141.15625 174.667969 143.253906 172.417969 Z M 143.253906 172.417969 "/><g clip-rule="nonzero" clip-path="url(#912d1fe019)"><path style=" stroke:none;fill-rule:nonzero;fill:#231f20;fill-opacity:1;" d="M 105.363281 192.171875 L 198.023438 192.171875 C 199.84375 192.171875 201.324219 190.691406 201.324219 188.871094 L 201.324219 133.5625 C 201.324219 131.742188 199.84375 130.257812 198.023438 130.257812 L 72.859375 130.257812 C 71.039062 130.257812 69.554688 131.742188 69.554688 133.5625 L 69.554688 188.871094 C 69.554688 190.691406 71.039062 192.171875 72.859375 192.171875 Z M 161.160156 142.867188 L 184.390625 142.867188 L 184.390625 148.632812 L 167.988281 148.632812 L 167.988281 159.511719 L 181.980469 159.511719 L 181.980469 165.277344 L 167.988281 165.277344 L 167.988281 181.324219 L 161.167969 181.324219 L 161.167969 142.867188 Z M 124.40625 142.867188 L 134.699219 142.867188 C 140.582031 142.867188 145.167969 144.453125 148.457031 147.628906 C 151.75 150.804688 153.394531 155.570312 153.394531 161.914062 C 153.394531 165.09375 152.972656 167.890625 152.132812 170.328125 C 151.289062 172.753906 150.074219 174.785156 148.488281 176.414062 C 146.90625 178.039062 144.984375 179.261719 142.722656 180.085938 C 140.464844 180.914062 137.910156 181.316406 135.042969 181.316406 L 124.40625 181.316406 Z M 90.183594 181.316406 L 90.183594 142.867188 L 102.296875 142.867188 C 103.347656 142.867188 104.378906 142.917969 105.363281 143.019531 C 106.351562 143.121094 107.292969 143.261719 108.203125 143.457031 C 110.023438 143.851562 111.601562 144.511719 112.941406 145.453125 C 114.273438 146.398438 115.3125 147.621094 116.0625 149.128906 C 116.804688 150.636719 117.183594 152.507812 117.183594 154.742188 C 117.183594 156.859375 116.8125 158.703125 116.0625 160.273438 C 115.320312 161.839844 114.289062 163.144531 112.976562 164.183594 C 111.660156 165.21875 110.109375 165.984375 108.332031 166.476562 C 107.386719 166.734375 106.402344 166.921875 105.371094 167.046875 C 104.460938 167.15625 103.519531 167.207031 102.539062 167.207031 L 97.011719 167.207031 L 97.011719 181.316406 Z M 90.183594 181.316406 "/></g><path style=" stroke:none;fill-rule:nonzero;fill:#231f20;fill-opacity:1;" d="M 105.363281 161.390625 C 108.769531 160.582031 110.472656 158.367188 110.472656 154.742188 C 110.472656 152.316406 109.738281 150.636719 108.261719 149.71875 C 107.488281 149.230469 106.519531 148.875 105.363281 148.648438 C 104.320312 148.445312 103.121094 148.335938 101.773438 148.335938 L 97.011719 148.335938 L 97.011719 161.738281 L 102.007812 161.738281 C 103.265625 161.738281 104.378906 161.628906 105.363281 161.390625 Z M 105.363281 161.390625 "/></g></svg>