<svg xmlns="http://www.w3.org/2000/svg" xmlns:xlink="http://www.w3.org/1999/xlink" width="500" zoomAndPan="magnify" viewBox="0 0 375 374.999991" height="500" preserveAspectRatio="xMidYMid meet" version="1.2"><g id="45b3b12db1"><rect x="0" width="375" y="0" height="374.999991" style="fill:#ffffff;fill-opacity:1;stroke:none;"/><rect x="0" width="375" y="0" height="374.999991" style="fill:#ffffff;fill-opacity:1;stroke:none;"/><path style=" stroke:none;fill-rule:evenodd;fill:#000000;fill-opacity:1;" d="M 205.035156 187.683594 L 257.074219 135.644531 C 261.863281 130.855469 261.875 123.078125 257.082031 118.285156 C 252.300781 113.503906 244.519531 113.5 239.726562 118.292969 L 187.683594 170.335938 L 135.644531 118.292969 C 130.855469 113.503906 123.078125 113.496094 118.289062 118.285156 C 113.507812 123.066406 113.5 130.847656 118.296875 135.644531 L 170.335938 187.683594 L 118.296875 239.726562 C 113.507812 244.511719 113.496094 252.289062 118.289062 257.082031 C 123.070312 261.863281 130.851562 261.871094 135.644531 257.074219 L 187.683594 205.035156 L 239.726562 257.074219 C 244.515625 261.863281 252.292969 261.871094 257.082031 257.082031 C 261.863281 252.300781 261.871094 244.519531 257.074219 239.726562 Z M 205.035156 187.683594 "/></g></svg>