<svg xmlns="http://www.w3.org/2000/svg" xmlns:xlink="http://www.w3.org/1999/xlink" width="500" zoomAndPan="magnify" viewBox="0 0 375 374.999991" height="500" preserveAspectRatio="xMidYMid meet" version="1.2"><defs><clipPath id="3b7b46c0c4"><path d="M 48.890625 152.847656 L 326.390625 152.847656 L 326.390625 221.847656 L 48.890625 221.847656 Z M 48.890625 152.847656 "/></clipPath></defs><g id="72f7d4ac82"><rect x="0" width="375" y="0" height="374.999991" style="fill:#ffffff;fill-opacity:1;stroke:none;"/><rect x="0" width="375" y="0" height="374.999991" style="fill:#ffffff;fill-opacity:1;stroke:none;"/><g clip-rule="nonzero" clip-path="url(#3b7b46c0c4)"><path style=" stroke:none;fill-rule:nonzero;fill:#000000;fill-opacity:1;" d="M 83.578125 152.847656 C 64.410156 152.847656 48.890625 168.285156 48.890625 187.347656 C 48.890625 206.410156 64.410156 221.847656 83.578125 221.847656 C 102.742188 221.847656 118.265625 206.410156 118.265625 187.347656 C 118.265625 168.285156 102.742188 152.847656 83.578125 152.847656 Z M 291.703125 152.847656 C 272.535156 152.847656 257.015625 168.285156 257.015625 187.347656 C 257.015625 206.410156 272.535156 221.847656 291.703125 221.847656 C 310.867188 221.847656 326.390625 206.410156 326.390625 187.347656 C 326.390625 168.285156 310.867188 152.847656 291.703125 152.847656 Z M 187.640625 152.847656 C 168.472656 152.847656 152.953125 168.285156 152.953125 187.347656 C 152.953125 206.410156 168.472656 221.847656 187.640625 221.847656 C 206.804688 221.847656 222.328125 206.410156 222.328125 187.347656 C 222.328125 168.285156 206.804688 152.847656 187.640625 152.847656 Z M 187.640625 152.847656 "/></g></g></svg>