<svg xmlns="http://www.w3.org/2000/svg" xmlns:xlink="http://www.w3.org/1999/xlink" width="500" zoomAndPan="magnify" viewBox="0 0 375 374.999991" height="500" preserveAspectRatio="xMidYMid meet" version="1.2"><defs><clipPath id="7a10695257"><path d="M 49 114 L 326 114 L 326 261.441406 L 49 261.441406 Z M 49 114 "/></clipPath></defs><g id="1f143825f3"><rect x="0" width="375" y="0" height="374.999991" style="fill:#ffffff;fill-opacity:1;stroke:none;"/><rect x="0" width="375" y="0" height="374.999991" style="fill:#ffffff;fill-opacity:1;stroke:none;"/><g clip-rule="nonzero" clip-path="url(#7a10695257)"><path style=" stroke:none;fill-rule:nonzero;fill:#000000;fill-opacity:1;" d="M 323.125 181.4375 C 320.664062 178.679688 261.9375 114.058594 187.640625 114.058594 C 113.339844 114.058594 54.613281 178.679688 52.152344 181.4375 C 51.777344 181.855469 51.445312 182.300781 51.152344 182.78125 C 50.859375 183.257812 50.613281 183.761719 50.414062 184.285156 C 50.214844 184.808594 50.0625 185.34375 49.960938 185.898438 C 49.859375 186.449219 49.808594 187.003906 49.808594 187.566406 C 49.808594 188.125 49.859375 188.679688 49.960938 189.234375 C 50.0625 189.785156 50.214844 190.320312 50.414062 190.84375 C 50.613281 191.367188 50.859375 191.871094 51.152344 192.347656 C 51.445312 192.828125 51.777344 193.273438 52.152344 193.691406 C 54.613281 196.449219 113.339844 261.070312 187.640625 261.070312 C 261.9375 261.070312 320.664062 196.449219 323.125 193.691406 C 323.5 193.273438 323.832031 192.828125 324.125 192.347656 C 324.417969 191.871094 324.664062 191.367188 324.863281 190.84375 C 325.0625 190.320312 325.214844 189.785156 325.316406 189.234375 C 325.417969 188.679688 325.46875 188.125 325.46875 187.566406 C 325.46875 187.003906 325.417969 186.449219 325.316406 185.898438 C 325.214844 185.34375 325.0625 184.808594 324.863281 184.285156 C 324.664062 183.761719 324.417969 183.257812 324.125 182.78125 C 323.832031 182.300781 323.5 181.855469 323.125 181.4375 Z M 187.640625 242.695312 C 134.34375 242.695312 87.976562 203.074219 71.859375 187.566406 C 87.941406 172.035156 134.167969 132.433594 187.640625 132.433594 C 241.109375 132.433594 287.300781 172.054688 303.417969 187.566406 C 287.335938 203.09375 241.109375 242.695312 187.640625 242.695312 Z M 187.640625 242.695312 "/></g><path style=" stroke:none;fill-rule:nonzero;fill:#000000;fill-opacity:1;" d="M 141.695312 187.566406 C 141.695312 189.070312 141.769531 190.570312 141.917969 192.066406 C 142.0625 193.566406 142.285156 195.050781 142.578125 196.527344 C 142.871094 198.003906 143.238281 199.460938 143.671875 200.902344 C 144.109375 202.339844 144.617188 203.753906 145.191406 205.144531 C 145.769531 206.535156 146.410156 207.894531 147.121094 209.222656 C 147.828125 210.546875 148.601562 211.835938 149.4375 213.089844 C 150.273438 214.339844 151.167969 215.546875 152.125 216.710938 C 153.078125 217.871094 154.085938 218.984375 155.152344 220.050781 C 156.214844 221.113281 157.328125 222.121094 158.492188 223.078125 C 159.65625 224.03125 160.863281 224.925781 162.113281 225.761719 C 163.363281 226.597656 164.652344 227.371094 165.980469 228.082031 C 167.308594 228.789062 168.667969 229.433594 170.058594 230.007812 C 171.445312 230.585938 172.863281 231.089844 174.300781 231.527344 C 175.742188 231.964844 177.199219 232.328125 178.675781 232.621094 C 180.152344 232.917969 181.636719 233.136719 183.136719 233.285156 C 184.632812 233.433594 186.132812 233.503906 187.640625 233.503906 C 189.144531 233.503906 190.644531 233.433594 192.140625 233.285156 C 193.640625 233.136719 195.125 232.917969 196.601562 232.621094 C 198.078125 232.328125 199.535156 231.964844 200.976562 231.527344 C 202.414062 231.089844 203.832031 230.585938 205.222656 230.007812 C 206.609375 229.433594 207.96875 228.789062 209.296875 228.082031 C 210.625 227.371094 211.914062 226.597656 213.164062 225.761719 C 214.414062 224.925781 215.621094 224.03125 216.785156 223.078125 C 217.949219 222.121094 219.0625 221.113281 220.125 220.050781 C 221.191406 218.984375 222.199219 217.871094 223.152344 216.710938 C 224.109375 215.546875 225.003906 214.339844 225.839844 213.089844 C 226.675781 211.835938 227.449219 210.546875 228.15625 209.222656 C 228.867188 207.894531 229.507812 206.535156 230.085938 205.144531 C 230.660156 203.753906 231.167969 202.339844 231.605469 200.902344 C 232.042969 199.460938 232.40625 198.003906 232.699219 196.527344 C 232.992188 195.050781 233.214844 193.566406 233.363281 192.066406 C 233.507812 190.570312 233.582031 189.070312 233.582031 187.566406 C 233.582031 186.058594 233.507812 184.558594 233.363281 183.0625 C 233.214844 181.5625 232.992188 180.078125 232.699219 178.601562 C 232.40625 177.125 232.042969 175.667969 231.605469 174.230469 C 231.167969 172.789062 230.660156 171.375 230.085938 169.984375 C 229.507812 168.59375 228.867188 167.234375 228.15625 165.90625 C 227.449219 164.582031 226.675781 163.292969 225.839844 162.042969 C 225.003906 160.789062 224.109375 159.582031 223.152344 158.421875 C 222.199219 157.257812 221.191406 156.144531 220.125 155.078125 C 219.0625 154.015625 217.949219 153.007812 216.785156 152.050781 C 215.621094 151.097656 214.414062 150.203125 213.164062 149.367188 C 211.914062 148.53125 210.625 147.757812 209.296875 147.046875 C 207.96875 146.339844 206.609375 145.695312 205.222656 145.121094 C 203.832031 144.546875 202.414062 144.039062 200.976562 143.601562 C 199.535156 143.164062 198.078125 142.800781 196.601562 142.507812 C 195.125 142.214844 193.640625 141.992188 192.140625 141.84375 C 190.644531 141.699219 189.144531 141.625 187.640625 141.625 C 186.132812 141.625 184.632812 141.699219 183.136719 141.851562 C 181.640625 142 180.15625 142.222656 178.679688 142.515625 C 177.203125 142.808594 175.746094 143.175781 174.308594 143.613281 C 172.871094 144.050781 171.453125 144.558594 170.066406 145.136719 C 168.675781 145.710938 167.316406 146.355469 165.992188 147.066406 C 164.664062 147.773438 163.378906 148.546875 162.125 149.382812 C 160.875 150.21875 159.671875 151.113281 158.507812 152.070312 C 157.34375 153.023438 156.230469 154.03125 155.167969 155.09375 C 154.105469 156.160156 153.09375 157.273438 152.140625 158.433594 C 151.1875 159.597656 150.292969 160.804688 149.453125 162.054688 C 148.617188 163.304688 147.847656 164.59375 147.136719 165.917969 C 146.425781 167.246094 145.785156 168.601562 145.207031 169.992188 C 144.628906 171.382812 144.125 172.796875 143.6875 174.234375 C 143.25 175.671875 142.882812 177.128906 142.585938 178.605469 C 142.292969 180.082031 142.070312 181.566406 141.921875 183.0625 C 141.773438 184.558594 141.695312 186.058594 141.695312 187.566406 Z M 215.207031 187.566406 C 215.207031 188.46875 215.160156 189.367188 215.074219 190.265625 C 214.984375 191.164062 214.851562 192.058594 214.675781 192.941406 C 214.5 193.828125 214.28125 194.703125 214.019531 195.566406 C 213.757812 196.429688 213.453125 197.277344 213.105469 198.113281 C 212.761719 198.945312 212.375 199.761719 211.949219 200.558594 C 211.523438 201.355469 211.0625 202.128906 210.558594 202.878906 C 210.058594 203.628906 209.519531 204.351562 208.949219 205.050781 C 208.375 205.75 207.769531 206.417969 207.132812 207.054688 C 206.492188 207.695312 205.824219 208.300781 205.125 208.871094 C 204.429688 209.445312 203.703125 209.980469 202.953125 210.484375 C 202.203125 210.984375 201.429688 211.449219 200.632812 211.875 C 199.835938 212.300781 199.023438 212.683594 198.1875 213.03125 C 197.355469 213.375 196.503906 213.679688 195.640625 213.941406 C 194.777344 214.203125 193.902344 214.421875 193.015625 214.597656 C 192.132812 214.777344 191.238281 214.90625 190.339844 214.996094 C 189.441406 215.085938 188.542969 215.128906 187.640625 215.128906 C 186.734375 215.128906 185.835938 215.085938 184.9375 214.996094 C 184.039062 214.90625 183.144531 214.777344 182.261719 214.597656 C 181.375 214.421875 180.5 214.203125 179.636719 213.941406 C 178.773438 213.679688 177.921875 213.375 177.089844 213.03125 C 176.253906 212.683594 175.441406 212.300781 174.644531 211.875 C 173.847656 211.449219 173.074219 210.984375 172.324219 210.484375 C 171.574219 209.980469 170.847656 209.445312 170.152344 208.871094 C 169.453125 208.300781 168.785156 207.695312 168.148438 207.054688 C 167.507812 206.417969 166.902344 205.75 166.328125 205.050781 C 165.757812 204.351562 165.21875 203.628906 164.71875 202.878906 C 164.21875 202.128906 163.753906 201.355469 163.328125 200.558594 C 162.902344 199.761719 162.515625 198.945312 162.171875 198.113281 C 161.824219 197.277344 161.523438 196.429688 161.257812 195.566406 C 160.996094 194.703125 160.777344 193.828125 160.601562 192.941406 C 160.425781 192.058594 160.292969 191.164062 160.207031 190.265625 C 160.117188 189.367188 160.074219 188.46875 160.074219 187.566406 C 160.074219 186.660156 160.117188 185.761719 160.207031 184.863281 C 160.292969 183.964844 160.425781 183.074219 160.601562 182.1875 C 160.777344 181.300781 160.996094 180.425781 161.257812 179.5625 C 161.523438 178.699219 161.824219 177.851562 162.171875 177.015625 C 162.515625 176.183594 162.902344 175.367188 163.328125 174.570312 C 163.753906 173.773438 164.21875 173 164.71875 172.25 C 165.21875 171.5 165.757812 170.777344 166.328125 170.078125 C 166.902344 169.378906 167.507812 168.710938 168.148438 168.074219 C 168.785156 167.433594 169.453125 166.828125 170.152344 166.257812 C 170.847656 165.683594 171.574219 165.148438 172.324219 164.644531 C 173.074219 164.144531 173.847656 163.679688 174.644531 163.253906 C 175.441406 162.828125 176.253906 162.445312 177.089844 162.097656 C 177.921875 161.753906 178.773438 161.449219 179.636719 161.1875 C 180.5 160.925781 181.375 160.707031 182.261719 160.53125 C 183.144531 160.355469 184.039062 160.222656 184.9375 160.132812 C 185.835938 160.042969 186.734375 160 187.640625 160 C 188.542969 160 189.441406 160.042969 190.339844 160.132812 C 191.238281 160.222656 192.132812 160.355469 193.015625 160.53125 C 193.902344 160.707031 194.777344 160.925781 195.640625 161.1875 C 196.503906 161.449219 197.355469 161.753906 198.1875 162.097656 C 199.023438 162.445312 199.835938 162.828125 200.632812 163.253906 C 201.429688 163.679688 202.203125 164.144531 202.953125 164.644531 C 203.703125 165.148438 204.429688 165.683594 205.125 166.257812 C 205.824219 166.828125 206.492188 167.433594 207.132812 168.074219 C 207.769531 168.710938 208.375 169.378906 208.949219 170.078125 C 209.519531 170.777344 210.058594 171.5 210.558594 172.25 C 211.0625 173 211.523438 173.773438 211.949219 174.570312 C 212.375 175.367188 212.761719 176.183594 213.105469 177.015625 C 213.453125 177.851562 213.757812 178.699219 214.019531 179.5625 C 214.28125 180.425781 214.5 181.300781 214.675781 182.1875 C 214.851562 183.074219 214.984375 183.964844 215.074219 184.863281 C 215.160156 185.761719 215.207031 186.660156 215.207031 187.566406 Z M 215.207031 187.566406 "/></g></svg>